<?xml version="1.0" encoding="UTF-8"?>
<svg width="76px" height="91px" viewBox="0 0 76 91" version="1.1" xmlns="http://www.w3.org/2000/svg" xmlns:xlink="http://www.w3.org/1999/xlink">
    <!-- Generator: Sketch 46.2 (44496) - http://www.bohemiancoding.com/sketch -->
    <title>Group 9</title>
    <desc>Created with Sketch.</desc>
    <defs></defs>
    <g id="Page-1" stroke="none" stroke-width="1" fill="none" fill-rule="evenodd">
        <g id="Artboard" transform="translate(-383.000000, -973.000000)">
            <g id="Group-9" transform="translate(384.000000, 974.000000)">
                <g id="Group-12">
                    <rect id="Rectangle-4" stroke="#292A33" stroke-width="2" fill="#FFFFFF" x="27.8365782" y="0" width="17.0112422" height="21.908418" rx="8.5056211"></rect>
                    <rect id="Rectangle-3" stroke="#292A33" stroke-width="2" fill="#D8232A" transform="translate(10.277257, 18.894936) scale(-1, 1) rotate(-45.000000) translate(-10.277257, -18.894936) " x="6.53993905" y="11.2914261" width="7.47463673" height="15.2070195" rx="3.73731836"></rect>
                    <rect id="Rectangle-3" stroke="#292A33" stroke-width="2" fill="#D8232A" transform="translate(61.826476, 18.575556) rotate(-45.000000) translate(-61.826476, -18.575556) " x="58.0891578" y="10.9720461" width="7.47463673" height="15.2070195" rx="3.73731836"></rect>
                    <rect id="Rectangle-3" stroke="#292A33" stroke-width="2" fill="#D8232A" transform="translate(10.596637, 82.373319) rotate(-45.000000) translate(-10.596637, -82.373319) " x="6.85931906" y="74.7698096" width="7.47463673" height="15.2070195" rx="3.73731836"></rect>
                    <rect id="Rectangle-3" stroke="#292A33" stroke-width="2" fill="#D8232A" transform="translate(62.145856, 82.373319) scale(-1, 1) rotate(-45.000000) translate(-62.145856, -82.373319) " x="58.4085379" y="74.7698096" width="7.47463673" height="15.2070195" rx="3.73731836"></rect>
                    <circle id="Oval-3" stroke="#292A33" stroke-width="2" fill="#FFFFFF" cx="36.5072641" cy="51.3836932" r="36.5072641"></circle>
                    <circle id="Oval-3" stroke="#292A33" stroke-width="2" fill="#FFFFFF" cx="36.5208098" cy="51.3972389" r="26.9842043"></circle>
                    <rect id="Rectangle-5" stroke="#292A33" stroke-width="2" fill="#E03740" transform="translate(43.945709, 45.817051) rotate(58.000000) translate(-43.945709, -45.817051) " x="39.9506446" y="34.8628425" width="7.99012891" height="21.908418" rx="3.99506446"></rect>
                    <rect id="Rectangle-5" stroke="#292A33" stroke-width="2" fill="#FFFFFF" x="34.0224844" y="48.6411674" width="5.0188793" height="21.908418" rx="2.50943965"></rect>
                    <rect id="Rectangle-5" fill="#292A33" transform="translate(27.965451, 50.380954) rotate(90.000000) translate(-27.965451, -50.380954) " x="25.967919" y="39.4267446" width="3.99506446" height="21.908418" rx="1.99753223"></rect>
                    <circle id="Oval-4" stroke="#292A33" stroke-width="2" fill="#FFFFFF" cx="36.4053874" cy="50.2508321" r="5.4758561"></circle>
                    <circle id="Oval-4" stroke="#292A33" stroke-width="2" fill="#E03740" cx="36.274178" cy="50.3773688" r="2.50943965"></circle>
                </g>
            </g>
        </g>
    </g>
</svg>