<?xml version="1.0" encoding="UTF-8"?>
<svg width="103px" height="91px" viewBox="0 0 103 91" version="1.1" xmlns="http://www.w3.org/2000/svg" xmlns:xlink="http://www.w3.org/1999/xlink">
    <!-- Generator: Sketch 46.2 (44496) - http://www.bohemiancoding.com/sketch -->
    <title>Group 14</title>
    <desc>Created with Sketch.</desc>
    <defs></defs>
    <g id="Page-1" stroke="none" stroke-width="1" fill="none" fill-rule="evenodd">
        <g id="Artboard" transform="translate(-656.000000, -971.000000)">
            <g id="Group-14" transform="translate(656.000000, 971.000000)">
                <rect id="Rectangle-7" fill="#D8232A" x="30.1547017" y="76.6747071" width="45.6635109" height="12.3252929" rx="4"></rect>
                <circle id="Oval-5" fill="#D8232A" cx="52.5" cy="8.5" r="2.5"></circle>
                <g id="Group-10" fill-rule="nonzero" fill="#000000">
                    <g id="noun_947695_cc" transform="translate(0.061208, 0.534755)">
                        <g id="Group" transform="translate(0.042621, 0.000000)">
                            <path d="M53.0305578,11.5878948 C55.2134661,11.5878948 56.9893153,9.81204549 56.9893153,7.62913727 C56.9893153,5.44622906 55.2134661,3.67037978 53.0305578,3.67037978 C50.8477677,3.67037978 49.0719184,5.44622906 49.0719184,7.62913727 C49.0719184,9.81204549 50.8477677,11.5878948 53.0305578,11.5878948 Z M53.0305578,6.03219555 C53.9111608,6.03219555 54.6274996,6.74853427 54.6274996,7.62913727 C54.6274996,8.50974028 53.9111608,9.226079 53.0305578,9.226079 C52.1499548,9.226079 51.4337342,8.50974028 51.4337342,7.62913727 C51.4337342,6.74853427 52.1500729,6.03219555 53.0305578,6.03219555 Z" id="Shape"></path>
                            <path d="M58.1111778,81.7273279 L45.8893717,81.7273279 C45.2371563,81.7273279 44.7084638,82.2561384 44.7084638,82.9082358 C44.7084638,83.5603331 45.2371563,84.0891436 45.8893717,84.0891436 L58.1111778,84.0891436 C58.7632751,84.0891436 59.2920857,83.5603331 59.2920857,82.9082358 C59.2920857,82.2561384 58.7632751,81.7273279 58.1111778,81.7273279 Z" id="Shape"></path>
                            <path d="M38.4500063,81.7273279 L36.2359221,81.7273279 C35.5837067,81.7273279 35.0550143,82.2561384 35.0550143,82.9082358 C35.0550143,83.5603331 35.5837067,84.0891436 36.2359221,84.0891436 L38.4500063,84.0891436 C39.1022217,84.0891436 39.6309142,83.5603331 39.6309142,82.9082358 C39.6309142,82.2561384 39.1022217,81.7273279 38.4500063,81.7273279 Z" id="Shape"></path>
                            <path d="M68.3844859,81.7273279 L66.1705198,81.7273279 C65.5184225,81.7273279 64.9896119,82.2561384 64.9896119,82.9082358 C64.9896119,83.5603331 65.5184225,84.0891436 66.1705198,84.0891436 L68.3844859,84.0891436 C69.0365833,84.0891436 69.5653938,83.5603331 69.5653938,82.9082358 C69.5653938,82.2561384 69.0365833,81.7273279 68.3844859,81.7273279 Z" id="Shape"></path>
                            <path d="M19.5865381,20.5312644 C21.481541,20.5312644 23.0232162,18.9895892 23.0232162,17.0945863 C23.0232162,15.1997015 21.481541,13.6580263 19.5865381,13.6580263 C17.6916533,13.6580263 16.1499781,15.1997015 16.1499781,17.0945863 C16.1499781,18.9895892 17.6915352,20.5312644 19.5865381,20.5312644 Z M19.5865381,16.019842 C20.1792358,16.019842 20.6614005,16.5020067 20.6614005,17.0945863 C20.6614005,17.6871659 20.1792358,18.1694487 19.5865381,18.1694487 C18.9938404,18.1694487 18.5117938,17.687284 18.5117938,17.0945863 C18.5117938,16.5018886 18.9938404,16.019842 19.5865381,16.019842 Z" id="Shape"></path>
                            <path d="M23.7121579,77.0429025 L13.7875719,77.0429025 C13.1353564,77.0429025 12.606664,77.571713 12.606664,78.2238104 C12.606664,78.8759077 13.1353564,79.4047183 13.7875719,79.4047183 L23.7121579,79.4047183 C24.3643733,79.4047183 24.8930658,78.8759077 24.8930658,78.2238104 C24.8930658,77.571713 24.3643733,77.0429025 23.7121579,77.0429025 Z" id="Shape"></path>
                            <path d="M7.74663761,77.0429025 L5.94870536,77.0429025 C5.29648994,77.0429025 4.76779748,77.571713 4.76779748,78.2238104 C4.76779748,78.8759077 5.29648994,79.4047183 5.94870536,79.4047183 L7.74663761,79.4047183 C8.39885303,79.4047183 8.92754549,78.8759077 8.92754549,78.2238104 C8.92754549,77.571713 8.39885303,77.0429025 7.74663761,77.0429025 Z" id="Shape"></path>
                            <path d="M95.901529,10.7031586 L76.103136,10.7031586 L76.103136,7.5801296 C76.103136,3.41778359 72.7168827,0.0315302404 68.5545367,0.0315302404 L36.7822101,0.0315302404 C32.6198641,0.0315302404 29.2337289,3.41778359 29.2337289,7.5801296 L29.2337289,10.7031586 L6.39225436,10.7031586 C2.88991777,10.7031586 0.0406232311,13.5524531 0.0406232311,17.0547897 L0.0406232311,77.9106336 C0.0406232311,81.4129702 2.88991777,84.2623828 6.39225436,84.2623828 L29.4382621,84.2623828 C30.2261638,87.5884099 33.2187025,90.0711506 36.7822101,90.0711506 L68.5545367,90.0711506 C72.1180443,90.0711506 75.1105829,87.5884099 75.8984847,84.2623828 L95.901529,84.2623828 C99.4038656,84.2623828 102.253278,81.4129702 102.253278,77.9106336 L102.253278,17.0547897 C102.253278,13.5525712 99.4038656,10.7031586 95.901529,10.7031586 Z M95.901529,13.0649743 C98.1015604,13.0649743 99.8914624,14.8547583 99.8914624,17.0547897 L99.8914624,20.8040541 L76.1032541,20.8040541 L76.1032541,13.0649743 L95.901529,13.0649743 Z M29.2337289,45.7645497 L29.2337289,71.4332358 L2.40243899,71.4332358 L2.40243899,23.1658699 L29.2336108,23.1658699 L29.2336108,42.8145238 L29.2337289,45.7645497 Z M31.5955446,14.8324392 L73.7414383,14.8324392 L73.7414383,74.8194891 L31.5955446,74.8194891 L31.5955446,14.8324392 Z M76.1032541,45.1302841 L76.1032541,23.1658699 L99.8914624,23.1658699 L99.8914624,71.4333539 L76.1032541,71.4333539 L76.1032541,48.6361634 L76.1032541,45.1302841 Z M36.7822101,2.393346 L68.5545367,2.393346 C71.4145775,2.393346 73.7413202,4.7200888 73.7413202,7.5801296 L73.7413202,12.4706234 L31.5955446,12.4706234 L31.5955446,7.5801296 C31.5955446,4.7200888 33.9222874,2.393346 36.7822101,2.393346 Z M6.39225436,13.0649743 L29.2336108,13.0649743 L29.2336108,20.8040541 L2.40243899,20.8040541 L2.40243899,17.0547897 C2.40243899,14.8548764 4.19222298,13.0649743 6.39225436,13.0649743 Z M2.40243899,77.9106336 L2.40243899,73.7951696 L29.2336108,73.7951696 L29.2336108,81.9005671 L6.39225436,81.9005671 C4.19222298,81.9005671 2.40243899,80.110665 2.40243899,77.9106336 Z M68.5545367,87.7094529 L36.7822101,87.7094529 C33.9222874,87.7094529 31.5955446,85.3827101 31.5955446,82.5226693 L31.5955446,77.1813049 L73.7414383,77.1813049 L73.7414383,82.5226693 C73.7413202,85.382592 71.4145775,87.7094529 68.5545367,87.7094529 Z M95.901529,81.9005671 L76.103136,81.9005671 L76.103136,73.7951696 L99.8913444,73.7951696 L99.8913444,77.9106336 C99.8914624,80.110665 98.1014423,81.9005671 95.901529,81.9005671 Z" id="Shape"></path>
                            <path d="M83.2955735,20.5312644 C85.1905764,20.5312644 86.7322517,18.9895892 86.7322517,17.0945863 C86.7322517,15.1997015 85.1905764,13.6580263 83.2955735,13.6580263 C81.4005707,13.6580263 79.8588954,15.1997015 79.8588954,17.0945863 C79.8588954,18.9895892 81.4005707,20.5312644 83.2955735,20.5312644 Z M83.2955735,16.019842 C83.8882712,16.019842 84.3704359,16.5020067 84.3704359,17.0945863 C84.3704359,17.6871659 83.8882712,18.1694487 83.2955735,18.1694487 C82.7028759,18.1694487 82.2207112,17.687284 82.2207112,17.0945863 C82.2207112,16.5018886 82.7028759,16.019842 83.2955735,16.019842 Z" id="Shape"></path>
                            <path d="M87.4210752,77.0429025 L77.4966073,77.0429025 C76.84451,77.0429025 76.3156994,77.571713 76.3156994,78.2238104 C76.3156994,78.8759077 76.84451,79.4047183 77.4966073,79.4047183 L87.4210752,79.4047183 C88.0731726,79.4047183 88.6019831,78.8759077 88.6019831,78.2238104 C88.6019831,77.571713 88.0732907,77.0429025 87.4210752,77.0429025 Z" id="Shape"></path>
                            <path d="M95.7633628,77.0429025 L93.9656667,77.0429025 C93.3135694,77.0429025 92.7847588,77.571713 92.7847588,78.2238104 C92.7847588,78.8759077 93.3135694,79.4047183 93.9656667,79.4047183 L95.7633628,79.4047183 C96.4154601,79.4047183 96.9442707,78.8759077 96.9442707,78.2238104 C96.9442707,77.571713 96.4154601,77.0429025 95.7633628,77.0429025 Z" id="Shape"></path>
                        </g>
                    </g>
                </g>
                <g id="Group-17" transform="translate(39.000000, 29.000000)">
                    <path d="M9.90052985,3.52982238 C9.47572358,3.53025909 9.20856837,3.80363737 9.19972506,4.22429492 C9.1902267,4.67977982 9.5957087,4.91712982 9.90183997,4.92630066 C10.2398508,4.93645408 10.615746,4.56831049 10.59664,4.22800693 C10.5748047,3.83933813 10.3601635,3.52993156 9.90052985,3.52982238 L9.90052985,3.52982238 Z M15.5481277,3.53025909 C15.0810701,3.52916732 14.8710143,3.88879514 14.8652279,4.2407806 C14.8595507,4.58588792 15.2339174,4.9475901 15.57302,4.92477218 C15.9084106,4.9022818 16.2756808,4.66373086 16.261597,4.21108455 C16.2483867,3.78999029 15.972279,3.52228919 15.5481277,3.53025909 L15.5481277,3.53025909 Z M20.9131765,24.2729454 C21.4104761,24.599711 21.915418,24.9289878 22.4176305,25.2626315 C22.8874175,25.57444 23.3317664,25.5425604 23.7251298,25.1505071 C24.0142295,24.8624992 24.1503728,24.1464097 23.6925952,23.7800129 C23.2856939,23.454339 22.8441836,23.1714624 22.4141368,22.8753753 C22.0247038,22.6072375 22.0274332,22.6138973 21.7792747,22.9912118 C21.5017477,23.4133978 21.2139581,23.8287057 20.9131765,24.2729454 L20.9131765,24.2729454 Z M4.529258,24.2790593 C4.19004622,23.7428929 3.8757267,23.2347848 3.5440481,22.7384679 C3.51042169,22.6881374 3.34567416,22.6664113 3.28540866,22.7030946 C2.97884068,22.8894591 2.6820986,23.0932919 2.39048782,23.3028019 C2.04046755,23.5545632 1.60736385,23.7235686 1.50626629,24.224471 C1.42973348,24.603423 1.50386441,24.939032 1.78848788,25.1913392 C2.10892129,25.475526 2.4947515,25.6085031 2.89248197,25.3628557 C3.45332232,25.0163291 3.9934191,24.6360669 4.529258,24.2790593 L4.529258,24.2790593 Z M3.00111271,8.96736444 C2.49518821,8.90054834 2.04003084,9.35308548 1.97670839,9.83651959 C1.93445704,10.158809 2.03326189,10.466032 2.26395211,10.6716116 C2.70229628,11.0622456 3.17928897,11.4097548 3.64208871,11.7728763 C3.75803429,11.8639296 3.83522217,11.8419851 3.93206184,11.7125016 C4.25140348,11.2851843 4.58286373,10.8660552 4.92851694,10.4596998 C5.04708276,10.3202812 4.99991846,10.2565221 4.89030512,10.1707093 C4.53788296,9.89481991 4.19823446,9.60091643 3.83194687,9.34511558 C3.57658273,9.16661179 3.35146052,8.88853891 3.00111271,8.96736444 L3.00111271,8.96736444 Z M21.6519748,11.8420943 C21.6993574,11.822115 21.7666102,11.8083587 21.8155214,11.7706928 C22.1737299,11.4954585 22.5385982,11.2274299 22.8799935,10.9324346 C23.0758564,10.7631017 23.2745579,10.5712783 23.3974907,10.3484488 C23.719671,9.76479055 23.1988985,8.97893716 22.5661107,8.95317148 C22.1570259,8.93646746 21.8893248,9.14783341 21.605138,9.36312973 C21.2624326,9.62286093 20.9297714,9.8958025 20.5865201,10.1546603 C20.4476474,10.2594699 20.4156586,10.3275961 20.5495092,10.4821902 C20.9227841,10.9136562 21.2702933,11.3673943 21.6519748,11.8420943 L21.6519748,11.8420943 Z M10.4718512,2.1529959 C11.7434314,2.63588413 12.300123,3.83791883 11.8353581,5.02947257 C11.6619856,5.47414899 11.3479936,5.81772784 10.9521192,6.03651781 C10.3315592,6.3794416 9.66143303,6.4696215 8.95080235,6.07200021 C9.02700763,6.66384672 9.25791621,7.0956403 9.5774762,7.50035806 C11.6819649,6.84431569 13.7816499,6.84518911 15.8711814,7.49610017 C16.2787378,7.01233853 16.5097555,6.46885726 16.4589884,6.12495088 C15.1177535,6.72498564 13.9915965,5.89589831 13.657516,5.10273009 C13.1729902,3.95222676 13.5670086,2.72529979 14.9885975,2.15081237 C13.8243379,1.14944431 11.6087074,1.16472904 10.4718512,2.1529959 L10.4718512,2.1529959 Z M9.11795177,25.9280631 C10.701668,26.9224438 15.0206954,26.9108711 16.334527,25.9239144 C16.252317,25.724667 16.1729456,25.5202884 16.0844034,25.3197309 C15.8203051,24.7219889 15.5473635,24.128068 15.2893791,23.5277057 C15.192867,23.3031294 15.0839087,23.1832534 14.8000495,23.187948 C13.549322,23.20891 12.2978303,23.2138229 11.047212,23.1883847 C10.5714202,23.178668 10.2639789,23.2236488 10.0851475,23.7768468 C9.84648742,24.5155359 9.45214143,25.2037853 9.11795177,25.9280631 L9.11795177,25.9280631 Z M9.13258144,9.1936876 C9.49603044,10.0253952 9.86264556,10.8587404 10.2233651,11.6945967 C10.2991337,11.870371 10.4065635,11.9366412 10.6067935,11.935222 C12.0242337,11.9255052 13.4416738,11.9263786 14.859114,11.9344577 C15.048208,11.9355495 15.1511615,11.8713536 15.2184143,11.7025666 C15.3508456,11.3699054 15.486443,11.0381176 15.6328488,10.7113519 C15.8623381,10.1994227 16.1019808,9.69196974 16.3351821,9.18724617 C14.8166443,8.18260282 10.4911754,8.19231954 9.13258144,9.1936876 L9.13258144,9.1936876 Z M21.8918358,18.2662656 C20.852911,18.2662656 19.8746884,18.2638637 18.8964658,18.2717244 C18.8357636,18.2721611 18.7551913,18.3391955 18.7187263,18.3972775 C18.5519044,18.66214 18.3964369,18.9342082 18.2391133,19.2049662 C18.0314594,19.562738 17.8250064,19.9212741 17.6192084,20.2799193 C17.2674413,20.8933828 16.9113072,21.5043352 16.5691476,22.12293 C16.4887936,22.2680258 16.3690268,22.4755705 16.4168462,22.5940272 C16.7514726,23.4220227 17.130643,24.231895 17.483611,25.0527941 C17.5842719,25.2870871 17.7192142,25.2639417 17.8683495,25.1357683 C18.3673959,24.7071408 18.8639312,24.2751289 19.3526058,23.8347104 C20.0698962,23.1882756 20.5558414,22.3702151 20.9863249,21.5240962 C21.381981,20.7464311 21.6192218,19.9086096 21.7675928,19.0478611 C21.8100625,18.8015586 21.8463092,18.5543827 21.8918358,18.2662656 L21.8918358,18.2662656 Z M3.6080256,18.2660472 C3.60376771,18.3465104 3.59274087,18.4014262 3.59940065,18.4540494 C3.70890481,19.3126144 3.87812858,20.1651747 4.22902227,20.9532116 C4.53340672,21.6372032 4.91410563,22.2945557 5.32482811,22.9217754 C5.92246098,23.8346012 6.75755302,24.5240516 7.63183948,25.1622982 C7.77147639,25.26416 7.89211656,25.2630682 7.97934869,25.0643668 C8.29847198,24.3370321 8.63189741,23.6160296 8.96051907,22.8929528 C9.08061336,22.6288545 9.08105007,22.3820062 8.91335476,22.1271879 C8.7263352,21.842892 8.56977591,21.538835 8.39705848,21.2451499 C8.16451226,20.849603 7.92596132,20.4576589 7.69625369,20.0605835 C7.465891,19.6625255 7.21696828,19.2720007 7.02339812,18.8561469 C6.76464951,18.300547 6.7473996,18.2660472 6.16232204,18.2660472 L5.12623582,18.2660472 L3.6080256,18.2660472 Z M21.8468551,16.8647652 C22.0101833,14.6465144 19.6215078,10.7134263 17.6083999,9.85245938 C17.5920234,9.8724387 17.5695331,9.89110791 17.5586154,9.91501759 C17.2092502,10.6783806 16.8535527,11.438905 16.5189263,12.2088186 C16.4534204,12.3595915 16.3971944,12.5835128 16.4616086,12.7104852 C16.8392506,13.4555065 17.2473528,14.1853523 17.6580753,14.9131237 C18.0026367,15.5236394 18.3627013,16.1255302 18.7220016,16.7277485 C18.7569381,16.786158 18.8336893,16.8584329 18.891662,16.8588696 C19.8703214,16.8670579 20.8489807,16.8647652 21.8468551,16.8647652 L21.8468551,16.8647652 Z M7.86667841,9.83903066 C5.76098875,10.8334114 3.36456172,14.8012177 3.62571221,16.8645468 C4.60852024,16.8645468 5.59493109,16.8658569 6.58134194,16.8606164 C6.63156319,16.8603981 6.7020913,16.8153081 6.72840286,16.7706549 C7.09752905,16.1428893 7.46458088,15.5139227 7.82409952,14.8805891 C8.1689885,14.2726936 8.47763083,13.6424169 8.85407185,13.0553742 C9.07864818,12.7049172 9.06489193,12.4205121 8.87951001,12.0752956 C8.69773092,11.7367388 8.56988508,11.3695778 8.41157897,11.0179199 C8.23383942,10.6231372 8.04867585,10.2318482 7.86667841,9.83903066 L7.86667841,9.83903066 Z M12.7104088,21.7961644 C13.4573953,21.7961644 14.2042726,21.7995488 14.9511499,21.7914698 C15.0383821,21.7905964 15.1605507,21.7506377 15.2053131,21.6862235 C15.3474611,21.4817357 15.4618782,21.2578144 15.5845927,21.0402254 C15.917909,20.4479422 16.2463123,19.8530387 16.5835589,19.262939 C16.8890351,18.7286286 17.2060841,18.2009779 17.5104685,17.6661216 C17.5397278,17.6148086 17.5375443,17.5225544 17.5117786,17.4668743 C17.4354642,17.3012533 17.3439741,17.1419646 17.2512832,16.9843136 C17.0030155,16.5628918 16.7447036,16.1473655 16.502004,15.722996 C16.0731582,14.9729525 15.6561034,14.2160309 15.2229997,13.4683894 C15.183587,13.400154 15.0638202,13.3409802 14.9810643,13.3405435 C13.4779205,13.3330103 11.9747766,13.3334471 10.4716328,13.3395609 C10.3945541,13.3398885 10.2873427,13.3855243 10.2464014,13.4456806 C10.1114591,13.6440546 9.9993347,13.8579316 9.88076888,14.0672232 C9.55531335,14.6413831 9.23487994,15.2185999 8.90516652,15.7903579 C8.66082922,16.2141816 8.38919776,16.6229389 8.15970849,17.0540774 C8.01177415,17.3321503 7.83119601,17.5700462 8.10490182,17.9577324 C8.58385969,18.6365927 8.93868374,19.4027943 9.34896952,20.1303473 C9.61983674,20.6106153 9.90391433,21.0835685 10.1667025,21.5682036 C10.2572099,21.7350254 10.3561239,21.805226 10.5538428,21.8014048 C11.2724434,21.7878669 11.9914807,21.7961644 12.7104088,21.7961644 L12.7104088,21.7961644 Z M5.52800582,25.3014984 C4.90777338,25.7175706 4.30752027,26.1493641 3.67789864,26.5333383 C3.1394395,26.8617416 2.54628287,26.9767046 1.91415018,26.8137039 C1.13419234,26.6124914 0.560905855,26.1395382 0.260670122,25.4141687 C0.10716778,25.043514 0.0846773943,24.5957807 0.0952675274,24.1851674 C0.110006372,23.6139553 0.383166301,23.1151272 0.791705251,22.7262401 C1.06115317,22.4698933 1.40211179,22.288551 1.71206424,22.0751106 C2.08195467,21.8202924 2.45304603,21.5670026 2.83276235,21.3069439 C2.71441488,20.9344332 2.57903586,20.5879066 2.4947515,20.2293705 C2.12857309,18.6721843 1.9603319,17.1035344 2.38011604,15.5296441 C2.58187445,14.7733776 2.83974965,14.0321775 3.05821209,13.2801689 C3.08168507,13.1993782 3.04314572,13.0524264 2.98047833,13.002751 C2.57095679,12.677623 2.1528103,12.3624301 1.72614803,12.0597925 C0.795963139,11.4001473 0.347138013,10.2582689 0.706547479,9.17752945 C0.995647196,8.3079376 2.05116686,7.55505555 2.89106267,7.55385461 C3.62636727,7.5529812 4.20631353,7.84557457 4.74302585,8.30542653 C5.12099534,8.62924442 5.52243781,8.92587732 5.91645627,9.23069847 C6.05587482,9.33845581 6.19059878,9.28026466 6.31953639,9.19685372 C6.82011123,8.8727083 7.31992185,8.54725277 7.82311693,8.22703771 C7.9213759,8.16458868 8.03339112,8.12375662 8.17914193,8.05366522 C8.15424965,7.9813903 8.13743645,7.89481323 8.09693192,7.82122818 C7.47014889,6.68229757 7.30398206,5.481573 7.55858196,4.2061716 C7.83196024,2.83633243 8.54750388,1.7745897 9.67682694,0.966464282 C10.1560032,0.623540487 10.6748105,0.360533986 11.2329214,0.210743649 C12.0653932,-0.0126317361 12.911403,-0.0686393473 13.7754268,0.107571734 C15.1092377,0.379639896 16.1901955,1.05162205 16.991552,2.12810363 C17.8667118,3.30349923 18.1743716,4.64167718 17.9516513,6.10224214 C17.8592878,6.70773573 17.6712857,7.27119632 17.3725784,7.80135803 C17.2737736,7.9766957 17.2682056,8.04613204 17.5078483,8.14875807 C17.9277416,8.32857198 18.3071304,8.60555309 18.6964542,8.85283816 C18.8650229,8.95983125 19.0183069,9.09138909 19.174757,9.21661469 C19.3252024,9.33692733 19.4625466,9.29467598 19.5943228,9.19019394 C20.1050511,8.78460276 20.591433,8.34342 21.129783,7.97866088 C21.8321162,7.50265077 22.599082,7.40264498 23.4107011,7.74174759 C23.9344214,7.96053756 24.3319335,8.31175878 24.5927565,8.79792231 C24.8565272,9.2894355 24.9572973,9.82101651 24.8535795,10.3878616 C24.7171087,11.1340838 24.2725414,11.6549655 23.6862629,12.0865408 C23.2794708,12.3859031 22.8758448,12.6895233 22.4720005,12.9929251 C22.2633639,13.1495936 22.404966,13.3377049 22.4558423,13.4928449 C22.5998463,13.9311891 22.8131774,14.3493356 22.9289046,14.7935753 C23.3277269,16.3240133 23.4906184,17.8710462 23.1231299,19.4358748 C22.9793443,20.0484649 22.8266061,20.6589806 22.6641513,21.326814 C22.8597958,21.4612105 23.099111,21.6258488 23.3385354,21.7902688 C23.7701106,22.0870109 24.2394609,22.3419383 24.6244177,22.6901026 C25.1852581,23.1975556 25.4366918,23.8735773 25.3781732,24.6350843 C25.3104837,25.5135194 24.878035,26.198712 24.1074664,26.6033206 C23.5305771,26.9062857 22.8754081,27.0403546 22.2486251,26.7381537 C21.7373509,26.4916329 21.2607949,26.1718545 20.775614,25.8734748 C20.4873877,25.6962811 20.2123717,25.4975796 19.9204334,25.3012801 C17.850117,27.101166 15.4958321,28.0855025 12.7234008,28.0855025 C9.94944098,28.0855025 7.59701213,27.0953796 5.52800582,25.3014984 L5.52800582,25.3014984 Z" id="Fill-56" fill="#0B0C09"></path>
                    <path d="M12.7104415,21.7960661 C11.9915134,21.7960661 11.2724761,21.7878779 10.5538756,21.8014158 C10.3561567,21.8051278 10.2572427,21.7350364 10.1667352,21.5681053 C9.90394708,21.0836886 9.61976031,20.6107354 9.34900227,20.1302491 C8.93871649,19.402696 8.58389245,18.6367128 8.10482539,17.9577433 C7.83122876,17.5699479 8.01169773,17.3321612 8.15963206,17.0540883 C8.38923051,16.6228407 8.66075279,16.2140834 8.90519927,15.7902597 C9.23491269,15.2185017 9.5553461,14.641394 9.88080163,14.0671249 C9.99925828,13.8578333 10.1114919,13.6439563 10.2464342,13.4456915 C10.2873754,13.3855352 10.3945869,13.3397902 10.4716656,13.3394627 C11.9748094,13.3333488 13.4779532,13.3329121 14.9810971,13.3404453 C15.063853,13.340882 15.1835106,13.4000557 15.2230325,13.4682911 C15.6561362,14.2159327 16.0730817,14.9728543 16.5020367,15.7228977 C16.7447364,16.1474856 17.0030483,16.5629027 17.2512068,16.9843245 C17.3440069,17.1418664 17.4353877,17.3011551 17.5118114,17.4669944 C17.5374679,17.5224561 17.5396514,17.6147103 17.5103921,17.6661325 C17.2061168,18.2009888 16.8890679,18.7286395 16.5835917,19.2629499 C16.2463451,19.8529404 15.9179417,20.4479531 15.5845163,21.0401271 C15.461911,21.2578253 15.3473847,21.4816374 15.2053459,21.6861252 C15.1605835,21.7505394 15.0384148,21.7904981 14.9510735,21.7913715 C14.2043054,21.7994506 13.4573189,21.7960661 12.7104415,21.7960661" id="Fill-57" fill="#D8232A"></path>
                    <path d="M7.86668933,9.83897607 C8.04868677,10.2317936 8.23385033,10.6231918 8.41158989,11.0178653 C8.56978683,11.3695232 8.69774184,11.7367934 8.87952092,12.0753502 C9.06490284,12.4204575 9.0786591,12.7048626 8.85397359,13.0553196 C8.47764175,13.6424715 8.16899942,14.272639 7.82411044,14.8805345 C7.4645918,15.5138681 7.09753997,16.1429439 6.72841378,16.7707095 C6.70210221,16.8152536 6.63157411,16.8603435 6.58135286,16.8604527 C5.59494201,16.8658023 4.60853116,16.8644922 3.62572313,16.8644922 C3.36457263,14.8012723 5.76099966,10.833466 7.86668933,9.83897607" id="Fill-58" fill="#FFFFFE"></path>
                    <path d="M21.8468442,16.8646669 C20.8489698,16.8646669 19.8703104,16.8669596 18.8916511,16.8588805 C18.8336783,16.8584438 18.7569272,16.7861689 18.7219906,16.7276502 C18.3626904,16.1254319 18.0026258,15.5237595 17.6580644,14.9130255 C17.2474511,14.185254 16.8392397,13.4554083 16.4615977,12.7103869 C16.3971835,12.5835237 16.4534094,12.3594933 16.5189154,12.2087203 C16.8535418,11.4389159 17.2092393,10.6782823 17.5586045,9.91491933 C17.5695221,9.89100965 17.5920125,9.87244962 17.608389,9.85236112 C19.6214969,10.713328 22.0102816,14.6466345 21.8468442,16.8646669" id="Fill-59" fill="#FFFFFE"></path>
                    <path d="M3.60800376,18.2659489 L5.12621398,18.2659489 L6.1623002,18.2659489 C6.74737776,18.2659489 6.76462767,18.3004488 7.02337628,18.8561578 C7.21705563,19.2720116 7.46586917,19.6624272 7.69623186,20.0604852 C7.92593948,20.4575606 8.16449042,20.8495047 8.39703664,21.2450516 C8.56975407,21.5389551 8.72631336,21.8430121 8.91333293,22.1270896 C9.08102823,22.3819079 9.08059152,22.6288654 8.96049723,22.8929637 C8.63187557,23.6160405 8.29845015,24.337043 7.97943603,25.0644869 C7.89209473,25.2630792 7.77145455,25.2642801 7.63181764,25.1622 C6.75764037,24.5240626 5.92254832,23.8346121 5.32480627,22.9218955 C4.91408379,22.2944574 4.53349406,21.6371049 4.22900044,20.9532225 C3.87810675,20.1651856 3.70888297,19.3125161 3.59937881,18.4541695 C3.59271904,18.401328 3.60374588,18.3465213 3.60800376,18.2659489" id="Fill-60" fill="#FFFFFE"></path>
                    <path d="M21.8918904,18.2661564 C21.8462546,18.5544919 21.810008,18.8015586 21.7676474,19.0477519 C21.6192764,19.9085004 21.3820356,20.7465402 20.9863795,21.5240962 C20.5557868,22.3702151 20.0698416,23.1881664 19.3525512,23.8347104 C18.8638766,24.2750197 18.3674505,24.7070317 17.8684041,25.1357683 C17.7192688,25.2640508 17.5843265,25.2871963 17.4835565,25.0526849 C17.1306976,24.2320042 16.7515272,23.4221319 16.4169008,22.5941363 C16.3690814,22.4756797 16.4888482,22.2680258 16.5692022,22.1228208 C16.9113617,21.5042261 17.2674959,20.8932736 17.619263,20.2799193 C17.825061,19.9211649 18.0314048,19.5626289 18.2391679,19.2050754 C18.3964914,18.934099 18.551959,18.66214 18.7186717,18.3971683 C18.7551367,18.3391955 18.835709,18.2722703 18.8965204,18.2718336 C19.8746338,18.2638637 20.8529656,18.2661564 21.8918904,18.2661564" id="Fill-61" fill="#FFFFFE"></path>
                    <path d="M9.13261419,9.19367668 C10.4912082,8.19230863 14.8166771,8.18259191 16.3352148,9.18723526 C16.1019044,9.69195882 15.8623708,10.1994118 15.6328816,10.711341 C15.4864757,11.0381067 15.3508783,11.3698944 15.2184471,11.7025556 C15.1511943,11.8713427 15.0482407,11.9355386 14.8591468,11.9344468 C13.4417066,11.9263677 12.0241572,11.9254943 10.6068262,11.935211 C10.4065963,11.9366303 10.2991665,11.8703601 10.2233979,11.6945857 C9.86267831,10.8587295 9.49606319,10.0253842 9.13261419,9.19367668" id="Fill-62" fill="#FFFFFE"></path>
                    <path d="M9.11795177,25.9280303 C9.45214143,25.2037526 9.84648742,24.5155031 10.0851475,23.776814 C10.2639789,23.223616 10.5714202,23.1785261 11.047212,23.1882428 C12.2977211,23.2140085 13.549322,23.2089864 14.8000495,23.1878061 C15.0839087,23.1831115 15.192867,23.3030966 15.2893791,23.5278913 C15.5473635,24.1282536 15.8203051,24.7219561 16.0844034,25.3199165 C16.1729456,25.520474 16.252317,25.7248526 16.334527,25.9238816 C15.0206954,26.9108384 10.701668,26.9223019 9.11795177,25.9280303" id="Fill-63" fill="#FFFFFE"></path>
                    <path d="M10.4718948,2.15300682 C11.6087511,1.16473996 13.8243816,1.14945523 14.9886412,2.15082328 C13.5670523,2.72531071 13.1729247,3.9521285 13.6575597,5.10274101 C13.9916402,5.89590923 15.1177971,6.72488738 16.459032,6.12485262 C16.50969,6.46886818 16.2787814,7.01234944 15.8712251,7.49600192 C13.7815844,6.84520002 11.6820086,6.84432661 9.5774107,7.50036898 C9.25795988,7.09554204 9.02694213,6.66385764 8.95073684,6.07201113 C9.6614767,6.46963242 10.3314937,6.37934334 10.9520536,6.03652872 C11.3480373,5.81773876 11.6619201,5.4741599 11.8354018,5.02948349 C12.3001667,3.83792975 11.743475,2.63589505 10.4718948,2.15300682" id="Fill-64" fill="#FFFFFE"></path>
                    <path d="M21.651942,11.8421161 C21.2702605,11.367307 20.9227513,10.9136781 20.5494764,10.4821028 C20.415735,10.3276179 20.4476146,10.2593825 20.5864873,10.1546821 C20.9297386,9.89571516 21.2623998,9.62277359 21.6051053,9.36315156 C21.889292,9.14785525 22.1569931,8.93648929 22.566078,8.95319331 C23.1988657,8.97884982 23.7196382,9.76481238 23.397458,10.3483615 C23.2745251,10.571191 23.0758236,10.7631235 22.8800699,10.9323473 C22.5385654,11.2274517 22.1736971,11.4954803 21.8154886,11.7707146 C21.7665775,11.8083805 21.6993247,11.8221368 21.651942,11.8421161" id="Fill-65" fill="#D8232A"></path>
                    <path d="M3.00107996,8.96737536 C3.35142777,8.88854983 3.57654998,9.16662271 3.83191412,9.34501732 C4.19820171,9.60092734 4.53795938,9.89483083 4.89027237,10.1707202 C4.9998857,10.256533 5.04705001,10.3202922 4.92848419,10.4597107 C4.58283098,10.8660661 4.25137073,11.285086 3.93202909,11.7125125 C3.83529859,11.841996 3.75811071,11.8639405 3.64205596,11.7728872 C3.17925622,11.4097658 2.7023727,11.0621474 2.26391935,10.6715134 C2.03322914,10.466043 1.93442428,10.1588199 1.97678482,9.83642133 C2.04010726,9.35309639 2.49515546,8.90055926 3.00107996,8.96737536" id="Fill-66" fill="#D8232A"></path>
                    <path d="M4.52923617,24.2789719 C3.99339727,24.6360887 3.45340966,25.0162417 2.89246013,25.3628775 C2.49472967,25.6085249 2.10900863,25.4754386 1.78846605,25.1912519 C1.50395175,24.9389447 1.42971164,24.6035541 1.50635364,24.2243836 C1.60734202,23.7235904 2.04044571,23.5544758 2.39057516,23.3029329 C2.68218594,23.0934229 2.97881885,22.8893718 3.28538682,22.7030073 C3.34565232,22.6663239 3.51039986,22.6882684 3.54402626,22.7385989 C3.87581404,23.2349158 4.19002438,23.7428055 4.52923617,24.2789719" id="Fill-67" fill="#D8232A"></path>
                    <path d="M20.9131329,24.2729017 C21.2140237,23.8287712 21.5018132,23.4133541 21.7793402,22.9913864 C22.0273895,22.6139628 22.0247693,22.6071939 22.4142023,22.8753317 C22.8441399,23.1714187 23.2856502,23.4542953 23.6925515,23.7799692 C24.1504383,24.1464752 24.014295,24.8623463 23.7250861,25.1504635 C23.3317227,25.5426259 22.8873739,25.5743963 22.417696,25.2624787 C21.9154835,24.9290533 21.4104324,24.5996674 20.9131329,24.2729017" id="Fill-68" fill="#D8232A"></path>
                    <path d="M15.5481823,3.53024817 C15.9722244,3.52227828 16.2484412,3.78997937 16.2615424,4.21107363 C16.2756262,4.66371994 15.908356,4.90227088 15.5730746,4.92476127 C15.233972,4.94757918 14.8594962,4.58587701 14.8651733,4.24076968 C14.8709597,3.88878422 15.0810155,3.5291564 15.5481823,3.53024817" id="Fill-69" fill="#D8232A"></path>
                    <path d="M9.90052985,3.52982238 C10.3601635,3.52993156 10.5748047,3.83933813 10.59664,4.22800693 C10.615746,4.56831049 10.2398508,4.93645408 9.90183997,4.92630066 C9.5957087,4.91712982 9.1902267,4.67977982 9.19972506,4.22429492 C9.20856837,3.80363737 9.47572358,3.53025909 9.90052985,3.52982238" id="Fill-70" fill="#D8232A"></path>
                </g>
            </g>
        </g>
    </g>
</svg>