<?xml version="1.0" encoding="UTF-8"?>
<svg width="144px" height="145px" viewBox="0 0 144 145" version="1.1" xmlns="http://www.w3.org/2000/svg" xmlns:xlink="http://www.w3.org/1999/xlink">
    <!-- Generator: Sketch 46.2 (44496) - http://www.bohemiancoding.com/sketch -->
    <title>Group 11</title>
    <desc>Created with Sketch.</desc>
    <defs>
        <path d="M6.4367397,13.249169 C-0.276582321,6.60175069 -1.69105172,2.37039032 2.19333148,0.555087915 C6.07771469,-1.26021449 10.7620408,1.37691678 16.2463099,8.46648173 C18.8081929,11.7788799 20.5207053,13.4869659 21.3838469,13.5907396 C22.6785593,13.7464002 17.7623407,14.2406779 16.2463099,17.7389835 C14.7302791,21.2372891 9.74994097,27.8984422 6.14621994,27.8984422 C5.64889466,27.967777 4.82485325,27.7987946 3.6740957,27.3914949 C2.52333816,26.9841952 1.6752317,26.2870724 1.12977633,25.3001265 C3.28574168,19.1970346 4.7092269,15.789412 5.40023202,15.0772587 C6.09123714,14.3651054 6.4367397,13.7557422 6.4367397,13.249169 Z" id="path-1"></path>
    </defs>
    <g id="Page-1" stroke="none" stroke-width="1" fill="none" fill-rule="evenodd">
        <g id="Artboard" transform="translate(-929.000000, -949.000000)">
            <g id="Group-11" transform="translate(918.000000, 950.000000)">
                <g id="Group-6" transform="translate(0.291320, 0.792627)">
                    <path d="M124.839,117.445299 C142.66906,114.783856 151.584091,104.944961 151.584091,87.9286159 C150.948667,74.6093775 142.033637,64.2622799 124.839,56.8873232 C118.502123,95.8808358 115.333685,115.377592 115.333685,115.377592 L124.839,117.445299 Z" id="Path-9" stroke="#000000" stroke-width="2" fill="#FFFFFF"></path>
                    <path d="M117.473632,47.622288 C115.981284,54.1118795 115.33084,59.3176788 115.522298,63.2396858 L123.651875,63.2866044 C125.073752,55.5104461 127.385016,50.7072964 130.585668,48.8771554 C135.386645,46.1319439 145.527199,51.078933 145.945895,29.0930669 C146.36459,7.10720082 125.925177,-0.0113608896 119.478149,1.36055038e-05 C113.031122,0.0113881006 103.982734,6.29384007 104.477633,16.9315576 C104.515408,22.6456369 106.512512,27.2342046 110.468943,30.6972606 C108.960553,33.9451096 107.921009,36.5409447 107.350311,38.484766 C106.452928,40.7078146 105.917877,42.3357131 105.74516,43.3684614 C108.894349,48.02031 112.80384,49.4382522 117.473632,47.622288 Z" id="Path-4" stroke="#000000" stroke-width="2" fill="#FFFFFF"></path>
                    <ellipse id="Oval-18" stroke="#000000" stroke-width="2" fill="#D8232A" transform="translate(140.778948, 19.162472) scale(-1, 1) rotate(-26.000000) translate(-140.778948, -19.162472) " cx="140.778948" cy="19.1624719" rx="7.49098266" ry="9.28959943"></ellipse>
                    <path d="M144.368028,7.48799049 C146.945081,6.41564968 149.522133,7.08961603 152.099186,9.50988954" id="Path-36" stroke="#000000" stroke-width="2" stroke-linecap="round" transform="translate(148.233607, 8.252009) scale(-1, 1) rotate(-52.000000) translate(-148.233607, -8.252009) "></path>
                    <path d="M104.771719,59.0641627 C99.9193367,58.8266588 96.5886371,58.8266588 94.7796203,59.0641627 C90.2070792,59.6644867 87.3911297,61.3400676 86.1784002,61.7107253 C83.279784,62.5966562 73.3511187,55.1685622 69.914705,57.1163625 L72.4290019,64.2187833 L89.2903885,74.1724043 L99.835462,71.0242301 L104.771719,59.0641627 Z" id="Path-12" stroke="#000000" stroke-width="2" fill="#D8232A"></path>
                    <ellipse id="Oval-6" fill="#000000" transform="translate(139.541871, 21.850237) scale(-1, 1) translate(-139.541871, -21.850237) " cx="139.541871" cy="21.8502366" rx="3.71201822" ry="3.44551435"></ellipse>
                    <g id="Path-7" transform="translate(108.347737, 17.568144)">
                        <mask id="mask-2" fill="white">
                            <use xlink:href="#path-1"></use>
                        </mask>
                        <use id="Mask" stroke="#000000" stroke-width="2" fill="#D8232A" xlink:href="#path-1"></use>
                    </g>
                    <path d="M130.01062,31.9731827 C130.622818,30.5506897 131.647116,30.0765254 133.083516,30.5506897" id="Path-64" stroke="#000000" stroke-width="2" stroke-linecap="round" transform="translate(131.547068, 31.173030) rotate(110.000000) translate(-131.547068, -31.173030) "></path>
                    <path d="" id="Path-5" stroke="#979797"></path>
                    <path d="" id="Path-6" stroke="#979797"></path>
                    <path d="M94.742814,107.875471 C86.3200015,113.316185 81.0107389,117.849969 78.815026,121.476821 C75.5214568,126.917099 75.4888672,126.834152 72.6663627,131.263302 C70.7846931,134.216069 72.1282948,135.915056 76.6971679,136.360264 C86.233405,137.831187 92.5782681,137.991285 95.7317573,136.840558 C96.9692087,135.968671 97.1137476,134.651534 96.1653742,132.889147 C94.9043661,129.934678 95.8259839,127.719044 98.9302274,126.242245 C104.137411,122.381862 107.055964,119.513476 107.685887,117.637086 L96.1959106,107.500309 L94.742814,107.875471 Z" id="Path-69" stroke="#000000" stroke-width="2" fill="#D8232A"></path>
                    <path d="M111.958031,36.7079451 C115.025945,35.2490121 116.498512,35.6455084 116.375732,37.897434 C119.311889,36.7817575 120.763813,37.9166198 120.731502,41.3020208 C118.344858,43.5346704 116.837395,44.7304434 116.209112,44.8893399 C113.37848,45.8376981 111.160693,45.1895507 109.555754,42.9448977 C109.966672,41.3752239 110.311193,40.229346 110.589316,39.5072638 C110.845032,38.8433565 111.301271,37.9102503 111.958031,36.7079451 Z" id="Path-8" stroke="#000000" stroke-width="2" fill="#FFFFFF"></path>
                    <ellipse id="Oval-2" stroke="#000000" stroke-width="2" fill="#FFFFFF" transform="translate(115.364693, 87.540284) rotate(8.000000) translate(-115.364693, -87.540284) " cx="115.364693" cy="87.5402835" rx="25.1521305" ry="31.6433022"></ellipse>
                    <path d="M91.7755002,79.6042888 C107.458269,87.3307717 123.025234,87.3307717 138.476396,79.6042888" id="Path-11" stroke="#000000" stroke-width="4" stroke-linecap="round"></path>
                    <path d="M91.3572111,94.6626979 C107.461746,102.389181 123.447363,102.389181 139.314062,94.6626979" id="Path-11" stroke="#000000" stroke-width="2" stroke-linecap="round"></path>
                    <path d="M94.7035242,107.629661 C107.858253,114.110646 120.915846,114.110646 133.876303,107.629661" id="Path-11" stroke="#000000" stroke-width="2" stroke-linecap="round"></path>
                    <path d="M97.6315482,67.8921929 C110.301341,75.6186758 122.877578,75.6186758 135.360259,67.8921929" id="Path-11" stroke="#000000" stroke-width="2" stroke-linecap="round"></path>
                    <path d="M119.011205,119.53279 L129.279724,130.896287 C130.006544,132.284199 130.006544,134.002538 129.279724,136.051304 C128.552905,138.100071 128.916314,139.762124 130.369954,141.037464 C141.353009,143.210919 149.065519,142.348941 153.507483,138.45153 C153.196643,135.448764 152.818019,133.364858 152.37161,132.19981 C152.008423,131.251958 150.829919,129.261875 148.836095,126.22956 L136.763982,112.866093 C132.1588,108.755177 127.90185,107.727448 123.993133,109.782906 C120.084416,111.838364 118.130058,113.97616 118.130058,116.196294 C118.098232,116.894232 118.149902,117.499107 118.285069,118.010922 C118.420236,118.522736 118.662281,119.030025 119.011205,119.53279 Z" id="Path-68" stroke="#000000" stroke-width="2" fill="#D8232A"></path>
                    <g id="Group-7" transform="translate(74.246762, 66.027853) rotate(-60.000000) translate(-74.246762, -66.027853) translate(48.746762, -4.972147)">
                        <path d="M23.3539174,77.8039598 C20.1325247,77.8039598 7.71765787,77.4242714 7.71765787,88.1786591 C7.71765787,94.6315136 11.6099119,94.8215426 11.6099119,100.261771 C11.6099119,105.70237 0.537160942,108.10657 0.537160942,120.126463 C0.537160942,132.145986 9.86512193,140.813011 25.1659508,140.813011 C40.4663865,140.813011 49.7947407,134.044058 49.7947407,120.82225 C49.7947407,104.985509 38.6547463,105.517886 38.6547463,100.198552 C38.6547463,94.8636892 43.0837681,94.7583229 43.0837681,86.7238647 C43.0837681,81.030387 41.9429892,80.9878708 41.3165636,80.9878708 C40.690138,80.9878708 38.5426739,87.6518276 34.2925748,87.6518276 C28.5882873,87.6518276 26.5753101,77.8039598 23.3539174,77.8039598" id="Fill-272" fill="#F6C779"></path>
                        <path d="M22.6028359,78.3082393 C20.269371,78.3082393 16.8238335,78.4513156 13.857258,79.6865045 C10.139601,81.2340952 8.25442558,84.0915555 8.25442558,88.1786591 C8.25442558,91.4024984 9.26818906,92.9951933 10.2485274,94.5353899 C11.1816774,96.0012756 12.1466796,97.5174413 12.1466796,100.261771 C12.1466796,102.658947 10.2520666,104.454241 8.05780737,106.5331 C4.94612762,109.480769 1.07392865,113.149734 1.07392865,120.126463 C1.07392865,132.197005 10.7558024,140.306883 25.1659508,140.306883 C40.7019351,140.306883 49.257973,133.38709 49.257973,120.82225 C49.257973,111.035014 44.8965879,107.649983 41.7121594,105.178866 C39.7833348,103.681925 38.1175854,102.389062 38.1175854,100.198552 C38.1175854,97.65756 39.0692175,96.2282753 40.0766892,94.7150672 C41.2913965,92.8909361 42.5470003,91.0050641 42.5470003,86.7238647 C42.5470003,84.3348223 42.3460565,82.7247512 41.9500675,81.9376464 C41.7853014,81.6104563 41.6484551,81.5246844 41.4923403,81.5021323 C41.3531346,81.6906826 41.117586,82.1062325 40.9052383,82.4803753 C39.7801889,84.4645892 37.6854186,88.1575859 34.2925748,88.1575859 C30.7326055,88.1575859 28.5300884,84.7145107 26.7601312,81.9479982 C25.5631196,80.0769144 24.4329581,78.3100878 23.3539174,78.3100878 L23.0318568,78.3089787 C22.8993361,78.308609 22.7561981,78.3082393 22.6028359,78.3082393 M25.1659508,141.319139 C17.6358667,141.319139 11.2681895,139.255069 6.75068953,135.35023 C2.33464459,131.532643 0,126.268024 0,120.126463 C0,112.731966 4.04600947,108.898851 7.29650167,105.819197 C9.40660827,103.820195 11.0731442,102.241179 11.0731442,100.261771 C11.0731442,97.7976787 10.2253265,96.4659964 9.32796099,95.0559365 C8.32127577,93.4750721 7.18089017,91.6831055 7.18089017,88.1786591 C7.18089017,83.6538232 9.28116586,80.4850702 13.4235182,78.7603901 C16.5760946,77.4479326 20.1722416,77.2959833 22.6028359,77.2959833 C22.7573778,77.2959833 22.9020888,77.296353 23.0357892,77.2970924 L23.3539174,77.2978318 C25.0393287,77.2978318 26.2626872,79.2106924 27.679518,81.4252334 C29.3948152,84.1067135 31.3389761,87.1456996 34.2925748,87.1456996 C37.0420838,87.1456996 38.9390562,83.8002269 39.958325,82.0030844 C40.5863236,80.8961836 40.8210857,80.4821125 41.3165636,80.4821125 C42.6995761,80.4821125 43.6205358,81.5435394 43.6205358,86.7238647 C43.6205358,91.2963927 42.2210074,93.3985429 40.986245,95.2529899 C40.023209,96.6996508 39.191514,97.9488886 39.191514,100.198552 C39.191514,101.911401 40.5352029,102.954343 42.3944246,104.397307 C45.7440124,106.996712 50.3315084,110.557354 50.3315084,120.82225 C50.3315084,127.462546 48.0538831,132.624386 43.5623368,136.164324 C39.2217932,139.584847 33.0322521,141.319139 25.1659508,141.319139" id="Fill-273" fill="#312429"></path>
                        <path d="M22.4188012,80.0103672 C22.569804,80.0103672 22.7113691,80.010737 22.8423169,80.0111067 C22.902482,80.0114764 22.960681,80.0114764 23.0165206,80.0118461 C23.1195485,80.0835691 23.3590295,80.2821014 23.7479403,80.7793564 C24.1989825,81.3557286 24.6834497,82.1136266 25.1966233,82.9158894 C27.0715745,85.8461818 29.639015,89.8597138 34.1085401,89.8597138 C37.2080295,89.8597138 39.3122376,87.7276174 40.7310346,85.6816625 C40.7444046,86.0454535 40.7522694,86.4525002 40.7522694,86.9076087 C40.7522694,90.7518152 39.6720489,92.3740867 38.5285174,94.0917423 C37.4946989,95.6445089 36.3228544,97.4043111 36.3228544,100.382296 C36.3228544,103.289666 38.4486904,104.939296 40.5041372,106.534579 C42.0420848,107.728361 43.7856951,109.081116 45.1191597,111.211364 C46.696431,113.731283 47.4628488,116.934788 47.4628488,121.005994 C47.4628488,126.861403 45.5092503,131.369972 41.6563199,134.40637 C39.7774363,135.887044 37.4294216,137.02574 34.6775532,137.790662 C31.8568684,138.574809 28.5945791,138.972243 24.9815229,138.972243 C18.1348837,138.972243 12.3944186,137.1385 8.38065447,133.668806 C4.53362262,130.343297 2.50019712,125.723817 2.50019712,120.309837 C2.50019712,113.960131 5.96146405,110.680835 9.01533804,107.787514 C11.3594203,105.567057 13.5733413,103.469344 13.5733413,100.445515 C13.5733413,97.2804595 12.4427866,95.50476 11.4455391,93.9375748 C10.4986258,92.4502462 9.68108729,91.1658863 9.68108729,88.3624032 C9.68108729,86.4595246 10.139601,84.8801392 11.0448312,83.6689812 C11.7970924,82.6626405 12.9001206,81.8515048 14.3236364,81.2588656 C17.3228505,80.0103672 21.0251714,80.0103672 22.4188012,80.0103672" id="Fill-274" fill="#F2B046"></path>
                        <path d="M45.0346139,125.665033 C45.0346139,126.867688 44.0004021,127.842234 42.7247432,127.842234 C41.4490843,127.842234 40.4152657,126.867688 40.4152657,125.665033 C40.4152657,124.462379 41.4490843,123.487833 42.7247432,123.487833 C44.0004021,123.487833 45.0346139,124.462379 45.0346139,125.665033" id="Fill-275" fill="#424542"></path>
                        <path d="M44.3692579,125.665033 C44.3692579,126.521273 43.6331193,127.215212 42.7247432,127.215212 C41.8163671,127.215212 41.0802285,126.521273 41.0802285,125.665033 C41.0802285,124.808794 41.8163671,124.114855 42.7247432,124.114855 C43.6331193,124.114855 44.3692579,124.808794 44.3692579,125.665033" id="Fill-276" fill="#9C4B2B"></path>
                        <path d="M44.3692579,125.038011 C44.3692579,125.894251 43.6331193,126.58819 42.7247432,126.58819 C41.8163671,126.58819 41.0802285,125.894251 41.0802285,125.038011 C41.0802285,124.181772 41.8163671,123.487833 42.7247432,123.487833 C43.6331193,123.487833 44.3692579,124.181772 44.3692579,125.038011" id="Fill-277" fill="#C37D4A"></path>
                        <path d="M38.467959,129.573939 C38.467959,130.776224 37.4337473,131.751139 36.1580883,131.751139 C34.8824294,131.751139 33.8482176,130.776224 33.8482176,129.573939 C33.8482176,128.371284 34.8824294,127.396368 36.1580883,127.396368 C37.4337473,127.396368 38.467959,128.371284 38.467959,129.573939" id="Fill-278" fill="#424542"></path>
                        <path d="M37.802603,129.573939 C37.802603,130.429809 37.0664644,131.124117 36.1580883,131.124117 C35.2497122,131.124117 34.5135736,130.429809 34.5135736,129.573939 C34.5135736,128.717699 35.2497122,128.02339 36.1580883,128.02339 C37.0664644,128.02339 37.802603,128.717699 37.802603,129.573939" id="Fill-279" fill="#9C4B2B"></path>
                        <path d="M37.802603,128.946547 C37.802603,129.802787 37.0664644,130.497095 36.1580883,130.497095 C35.2497122,130.497095 34.5135736,129.802787 34.5135736,128.946547 C34.5135736,128.090677 35.2497122,127.396368 36.1580883,127.396368 C37.0664644,127.396368 37.802603,128.090677 37.802603,128.946547" id="Fill-280" fill="#C37D4A"></path>
                        <path d="M15.1584773,87.0639945 C15.1584773,87.9087735 14.4321697,88.5934696 13.5359839,88.5934696 C12.6401913,88.5934696 11.9138837,87.9087735 11.9138837,87.0639945 C11.9138837,86.2195852 12.6401913,85.5345194 13.5359839,85.5345194 C14.4321697,85.5345194 15.1584773,86.2195852 15.1584773,87.0639945" id="Fill-281" fill="#424542"></path>
                        <path d="M14.6913124,87.0639945 C14.6913124,87.6655067 14.1742066,88.1531494 13.5359839,88.1531494 C12.8981544,88.1531494 12.3810485,87.6655067 12.3810485,87.0639945 C12.3810485,86.462852 12.8981544,85.9752093 13.5359839,85.9752093 C14.1742066,85.9752093 14.6913124,86.462852 14.6913124,87.0639945" id="Fill-282" fill="#9C4B2B"></path>
                        <path d="M38.8368148,120.970133 C38.8368148,122.172787 37.8029962,123.147333 36.5273373,123.147333 C35.2516784,123.147333 34.2174666,122.172787 34.2174666,120.970133 C34.2174666,119.767478 35.2516784,118.792932 36.5273373,118.792932 C37.8029962,118.792932 38.8368148,119.767478 38.8368148,120.970133" id="Fill-284" fill="#424542"></path>
                        <path d="M38.171852,120.970133 C38.171852,121.826373 37.4353202,122.520311 36.5273373,122.520311 C35.6189612,122.520311 34.8828226,121.826373 34.8828226,120.970133 C34.8828226,120.113893 35.6189612,119.419954 36.5273373,119.419954 C37.4353202,119.419954 38.171852,120.113893 38.171852,120.970133" id="Fill-285" fill="#9C4B2B"></path>
                        <path d="M45.6995767,117.111138 C45.6995767,118.313793 44.6657582,119.288339 43.3900992,119.288339 C42.1144403,119.288339 41.0802285,118.313793 41.0802285,117.111138 C41.0802285,115.908483 42.1144403,114.933937 43.3900992,114.933937 C44.6657582,114.933937 45.6995767,115.908483 45.6995767,117.111138" id="Fill-287" fill="#424542"></path>
                        <path d="M45.0346139,117.111138 C45.0346139,117.967378 44.2980821,118.661317 43.3900992,118.661317 C42.4817231,118.661317 41.7455845,117.967378 41.7455845,117.111138 C41.7455845,116.254898 42.4817231,115.560959 43.3900992,115.560959 C44.2980821,115.560959 45.0346139,116.254898 45.0346139,117.111138" id="Fill-288" fill="#9C4B2B"></path>
                        <path d="M22.5603663,37.1562266 C22.5603663,40.319434 20.863158,92.4402641 20.863158,92.4402641 L29.0998879,92.4402641 C29.0998879,92.4402641 28.3421213,40.319434 28.3421213,37.1562266 C28.3421213,34.4669827 28.3421213,26.8713659 28.3421213,23.955492 L22.5603663,23.955492 C22.5603663,26.8713659 22.5603663,34.4669827 22.5603663,37.1562266" id="Fill-291" fill="#424542"></path>
                        <path d="M21.209206,92.1237955 L28.7597384,92.1237955 C28.6960341,87.7320539 28.0066907,40.1560238 28.0066907,37.1562266 L28.0066907,24.2719606 L22.8961902,24.2719606 L22.8961902,37.1562266 C22.8961902,40.1571329 21.3531305,87.6954529 21.209206,92.1237955 Z M29.4404307,92.756363 L20.5171099,92.756363 L20.5277273,92.430282 C20.5446365,91.9093658 22.2249357,40.2783966 22.2249357,37.1562266 L22.2249357,23.6390234 L28.6779452,23.6390234 L28.6779452,37.1562266 C28.6779452,40.2809846 29.4278471,91.9145417 29.4357118,92.4358276 L29.4404307,92.756363 L29.4404307,92.756363 Z" id="Fill-292" fill="#312429"></path>
                        <path d="M28.3421213,22.9010895 C28.3421213,21.762394 30.8029948,20.6236985 30.8029948,19.4428564 C30.8029948,18.2620144 30.2213982,15.5627884 30.2213982,13.580423 C30.2213982,11.5984273 31.653172,2.61493294 31.653172,2.61493294 C30.0994949,1.15052613 27.7385034,0.316468627 26.9331553,0.316468627 C26.1278071,0.316468627 26.5025614,1.28103247 25.4514405,1.28103247 C24.4003195,1.28103247 24.7750738,0.316468627 23.9697257,0.316468627 C23.1643775,0.316468627 20.7919822,1.16124761 19.249709,2.61493294 C19.249709,2.61493294 20.6814828,11.5984273 20.6814828,13.580423 C20.6814828,15.5627884 20.0998861,18.2620144 20.0998861,19.4428564 C20.0998861,20.6236985 22.5603663,21.762394 22.5603663,22.9010895 C22.5603663,22.9302963 22.5603663,22.9661578 22.5603663,23.0064558 L28.3421213,23.0064558 C28.3421213,22.9661578 28.3421213,22.9302963 28.3421213,22.9010895" id="Fill-293" fill="#F2B046"></path>
                        <path d="M22.8761352,22.6903569 L28.0267457,22.6903569 C28.1427505,22.0781232 28.7400766,21.5198666 29.3197071,20.9786165 C29.8840013,20.451785 30.4675642,19.9068379 30.4675642,19.4428564 C30.4675642,18.9489287 30.3598174,18.1666301 30.2351614,17.2604799 C30.0715751,16.0696558 29.8859675,14.7194882 29.8859675,13.580423 C29.8859675,11.7204304 31.0971357,3.98321611 31.2957201,2.72843279 C29.755413,1.34536137 27.5572215,0.632567548 26.9331553,0.632567548 C26.7715351,0.632567548 26.7357506,0.672865539 26.6079488,0.899495525 C26.4506542,1.17751469 26.2131394,1.59750109 25.4514405,1.59750109 C24.6897415,1.59750109 24.4522267,1.17751469 24.2949322,0.899495525 C24.1671303,0.672865539 24.1313458,0.632567548 23.9697257,0.632567548 C23.3452662,0.632567548 21.1474679,1.34536137 19.6071609,2.72843279 C19.8057453,3.98321611 21.0169134,11.7204304 21.0169134,13.580423 C21.0169134,14.7194882 20.8313058,16.0696558 20.6677195,17.2604799 C20.5430635,18.1666301 20.4353168,18.9489287 20.4353168,19.4428564 C20.4353168,19.9068379 21.0188796,20.451785 21.5831739,20.9786165 C22.1628043,21.5198666 22.7601304,22.0781232 22.8761352,22.6903569 Z M28.3421213,23.3229245 L22.5603663,23.3229245 C22.375152,23.3229245 22.2249357,23.1813269 22.2249357,23.0064558 L22.2249357,22.9010895 C22.2249357,22.4689028 21.6586752,21.9394833 21.1108969,21.4281795 C20.4486868,20.8096608 19.7644554,20.1704385 19.7644554,19.4428564 C19.7644554,18.9078913 19.8745616,18.1067377 20.0019702,17.1791445 C20.1631972,16.0071754 20.3460521,14.6788205 20.3460521,13.580423 C20.3460521,11.6442709 18.9323672,2.75135458 18.9182107,2.66188565 C18.902088,2.56280435 18.9374793,2.46224422 19.0125874,2.39126061 C20.6779436,0.821487487 23.1250538,0 23.9697257,0 C24.5469967,0 24.7518729,0.362312213 24.8871462,0.601881921 C25.0239925,0.843669868 25.0924156,0.964563841 25.4514405,0.964563841 C25.8104653,0.964563841 25.8788884,0.843669868 26.0153415,0.601881921 C26.151008,0.362312213 26.3558842,0 26.9331553,0 C27.7778271,0 30.2249373,0.821487487 31.8902935,2.39126061 C31.9654017,2.46224422 32.0007929,2.56280435 31.9846703,2.66188565 C31.9705137,2.75135458 30.5568288,11.6442709 30.5568288,13.580423 C30.5568288,14.6788205 30.7396838,16.0071754 30.9009107,17.1791445 C31.0283193,18.1067377 31.1384255,18.9078913 31.1384255,19.4428564 C31.1384255,20.1704385 30.4538009,20.8096608 29.791984,21.4281795 C29.2442057,21.9394833 28.6779452,22.4689028 28.6779452,22.9010895 L28.6779452,23.0064558 C28.6779452,23.1813269 28.5277289,23.3229245 28.3421213,23.3229245 L28.3421213,23.3229245 Z" id="Fill-294" fill="#312429"></path>
                        <path d="M22.0173069,23.0064558 C22.0173069,23.2027699 22.2355531,23.5288509 22.2355531,23.955492 L28.6779452,23.955492 C28.6779452,23.5288509 28.8820349,23.2027699 28.8820349,23.0064558 L22.0173069,23.0064558" id="Fill-295" fill="#FFFFFE"></path>
                        <path d="M32.1002818,96.5391983 C32.1002818,96.7488218 31.9201795,96.918517 31.6976077,96.918517 L18.2760556,96.918517 C18.0534838,96.918517 17.8733815,96.7488218 17.8733815,96.5391983 L17.8733815,90.2039105 C17.8733815,89.994287 18.0534838,89.824222 18.2760556,89.824222 L31.6976077,89.824222 C31.9201795,89.824222 32.1002818,89.994287 32.1002818,90.2039105 L32.1002818,96.5391983" id="Fill-296" fill="#343038"></path>
                        <path d="M31.2056689,95.8386048 C31.2056689,96.0482283 31.0251734,96.2182932 30.8029948,96.2182932 L19.1706684,96.2182932 C18.9484899,96.2182932 18.7679944,96.0482283 18.7679944,95.8386048 L18.7679944,90.9041343 C18.7679944,90.6945108 18.9484899,90.5248156 19.1706684,90.5248156 L30.8029948,90.5248156 C31.0251734,90.5248156 31.2056689,90.6945108 31.2056689,90.9041343 L31.2056689,95.8386048" id="Fill-297" fill="#FFFFFE"></path>
                        <path d="M31.9661881,111.532269 C31.9661881,111.741893 31.7860859,111.911588 31.5635141,111.911588 L18.141962,111.911588 C17.9193902,111.911588 17.7392879,111.741893 17.7392879,111.532269 L17.7392879,105.196981 C17.7392879,104.987358 17.9193902,104.817663 18.141962,104.817663 L31.5635141,104.817663 C31.7860859,104.817663 31.9661881,104.987358 31.9661881,105.196981 L31.9661881,111.532269" id="Fill-298" fill="#343038"></path>
                        <path d="M31.0715753,110.832045 C31.0715753,111.041669 30.8910798,111.211364 30.6689012,111.211364 L19.0365748,111.211364 C18.8143963,111.211364 18.6339007,111.041669 18.6339007,110.832045 L18.6339007,105.897575 C18.6339007,105.687951 18.8143963,105.517886 19.0365748,105.517886 L30.6689012,105.517886 C30.8910798,105.517886 31.0715753,105.687951 31.0715753,105.897575 L31.0715753,110.832045" id="Fill-299" fill="#FFFFFE"></path>
                        <path d="M30.581996,121.307305 C30.581996,121.516928 30.4018937,121.686624 30.1793219,121.686624 L19.263079,121.686624 C19.0405072,121.686624 18.8604049,121.516928 18.8604049,121.307305 L18.8604049,119.799273 C18.8604049,119.589649 19.0405072,119.419954 19.263079,119.419954 L30.1793219,119.419954 C30.4018937,119.419954 30.581996,119.589649 30.581996,119.799273 L30.581996,121.307305" id="Fill-300" fill="#343038"></path>
                        <path d="M29.7711425,120.347547 C29.7711425,120.55754 29.5910402,120.727236 29.3684684,120.727236 L20.0739325,120.727236 C19.8517539,120.727236 19.6712584,120.55754 19.6712584,120.347547 L19.6712584,119.799273 C19.6712584,119.589649 19.8517539,119.419954 20.0739325,119.419954 L29.3684684,119.419954 C29.5910402,119.419954 29.7711425,119.589649 29.7711425,119.799273 L29.7711425,120.347547" id="Fill-301" fill="#5C6162"></path>
                        <polyline id="Fill-302" fill="#424542" points="18.1863977 113.610389 18.1863977 115.560959 31.5410996 114.933937 31.5410996 113.104261 18.1863977 113.610389"></polyline>
                        <path d="M17.1694883,5.2132291 C16.3138059,5.2132291 16.0790438,5.62434255 16.0790438,6.14599819 C16.0790438,6.2044118 16.0790438,6.45913946 16.0790438,6.51718336 C16.0790438,7.038839 16.3138059,7.45032216 17.1694883,7.45032216 C18.1592644,7.45032216 18.1423552,6.97561922 18.9815217,6.97561922 L18.9815217,5.68756233 C18.1423552,5.68756233 18.1592644,5.2132291 17.1694883,5.2132291" id="Fill-340" fill="#424542"></path>
                        <path d="M22.8289468,6.35451257 C22.8289468,6.75749248 22.4081838,7.08468259 21.889505,7.08468259 C21.3708262,7.08468259 20.9500632,6.75749248 20.9500632,6.35451257 C20.9500632,5.95116295 21.3708262,5.62434255 21.889505,5.62434255 C22.4081838,5.62434255 22.8289468,5.95116295 22.8289468,6.35451257" id="Fill-341" fill="#5C6162"></path>
                        <path d="M22.5485692,6.33935461 C22.5485692,6.62217996 22.2532487,6.85139789 21.889505,6.85139789 C21.5253681,6.85139789 21.2304408,6.62217996 21.2304408,6.33935461 C21.2304408,6.05652926 21.5253681,5.82694162 21.889505,5.82694162 C22.2532487,5.82694162 22.5485692,6.05652926 22.5485692,6.33935461" id="Fill-342" fill="#E2E7E0"></path>
                        <polygon id="Fill-343" fill="#5C6162" points="28.8077133 6.38799871 32.5324486 6.38799871 32.5324486 5.95190237 28.8077133 5.95190237"></polygon>
                        <path d="M33.6331173,7.27545106 C34.4887997,7.27545106 34.7239551,6.86433761 34.7239551,6.34231226 C34.7239551,6.28463807 34.7239551,6.0295407 34.7239551,5.9714968 C34.7239551,5.44984116 34.4887997,5.038358 33.6331173,5.038358 C32.6433412,5.038358 32.6602504,5.51306094 31.8214771,5.51306094 L31.8214771,6.80111783 C32.6602504,6.80111783 32.6433412,7.27545106 33.6331173,7.27545106" id="Fill-344" fill="#424542"></path>
                        <path d="M27.9740521,6.13416759 C27.9740521,5.73118768 28.3944218,5.40399757 28.9134939,5.40399757 C29.4321727,5.40399757 29.8525424,5.73118768 29.8525424,6.13416759 C29.8525424,6.53751721 29.4321727,6.86433761 28.9134939,6.86433761 C28.3944218,6.86433761 27.9740521,6.53751721 27.9740521,6.13416759" id="Fill-345" fill="#5C6162"></path>
                        <path d="M28.2544296,6.14932555 C28.2544296,5.8665002 28.5493569,5.63728227 28.9134939,5.63728227 C29.2772375,5.63728227 29.5721648,5.8665002 29.5721648,6.14932555 C29.5721648,6.4321509 29.2772375,6.66173854 28.9134939,6.66173854 C28.5493569,6.66173854 28.2544296,6.4321509 28.2544296,6.14932555" id="Fill-346" fill="#E2E7E0"></path>
                        <polygon id="Fill-347" fill="#5C6162" points="18.4046439 11.6540958 22.128986 11.6540958 22.128986 11.2179995 18.4046439 11.2179995"></polygon>
                        <path d="M17.303582,10.2741392 C16.4478995,10.2741392 16.2131374,10.6852526 16.2131374,11.207278 C16.2131374,11.2653219 16.2131374,11.5200496 16.2131374,11.5780934 C16.2131374,12.1001188 16.4478995,12.5112322 17.303582,12.5112322 C18.2937512,12.5112322 18.2768421,12.036899 19.1156153,12.036899 L19.1156153,10.7484724 C18.2768421,10.7484724 18.2937512,10.2741392 17.303582,10.2741392" id="Fill-348" fill="#424542"></path>
                        <path d="M22.9630404,11.4154227 C22.9630404,11.8187723 22.5422775,12.1455927 22.0235986,12.1455927 C21.5049198,12.1455927 21.0841568,11.8187723 21.0841568,11.4154227 C21.0841568,11.012073 21.5049198,10.6852526 22.0235986,10.6852526 C22.5422775,10.6852526 22.9630404,11.012073 22.9630404,11.4154227" id="Fill-349" fill="#5C6162"></path>
                        <path d="M22.6826629,11.4002647 C22.6826629,11.68309 22.3877356,11.912308 22.0235986,11.912308 C21.659855,11.912308 21.3645344,11.68309 21.3645344,11.4002647 C21.3645344,11.1174393 21.659855,10.8878517 22.0235986,10.8878517 C22.3877356,10.8878517 22.6826629,11.1174393 22.6826629,11.4002647" id="Fill-350" fill="#E2E7E0"></path>
                        <polygon id="Fill-351" fill="#5C6162" points="28.9422001 11.4488539 32.6665422 11.4488539 32.6665422 11.0131822 28.9422001 11.0131822"></polygon>
                        <path d="M33.7676042,12.3367309 C34.6232866,12.3367309 34.8580487,11.9252477 34.8580487,11.4035921 C34.8580487,11.3455482 34.8580487,11.0904508 34.8580487,11.0324069 C34.8580487,10.5107512 34.6232866,10.0996378 33.7676042,10.0996378 C32.7778281,10.0996378 32.794344,10.573971 31.9555708,10.573971 L31.9555708,11.8620279 C32.794344,11.8620279 32.7778281,12.3367309 33.7676042,12.3367309" id="Fill-352" fill="#424542"></path>
                        <path d="M28.1081457,11.1950777 C28.1081457,10.7920978 28.5289086,10.4649077 29.0475875,10.4649077 C29.5662663,10.4649077 29.9870293,10.7920978 29.9870293,11.1950777 C29.9870293,11.5984273 29.5662663,11.9252477 29.0475875,11.9252477 C28.5289086,11.9252477 28.1081457,11.5984273 28.1081457,11.1950777" id="Fill-353" fill="#5C6162"></path>
                        <path d="M28.3885232,11.2106053 C28.3885232,10.9274103 28.6834506,10.6981924 29.0475875,10.6981924 C29.4113312,10.6981924 29.7066517,10.9274103 29.7066517,11.2106053 C29.7066517,11.4934307 29.4113312,11.7226486 29.0475875,11.7226486 C28.6834506,11.7226486 28.3885232,11.4934307 28.3885232,11.2106053" id="Fill-354" fill="#E2E7E0"></path>
                        <polygon id="Fill-355" fill="#5C6162" points="18.2705503 16.7150059 21.9948924 16.7150059 21.9948924 16.2789096 18.2705503 16.2789096"></polygon>
                        <path d="M17.1694883,15.3350493 C16.3138059,15.3350493 16.0790438,15.7461627 16.0790438,16.2681881 C16.0790438,16.326232 16.0790438,16.5809596 16.0790438,16.6390035 C16.0790438,17.1610289 16.3138059,17.5721423 17.1694883,17.5721423 C18.1592644,17.5721423 18.1423552,17.0978091 18.9815217,17.0978091 L18.9815217,15.8093825 C18.1423552,15.8093825 18.1592644,15.3350493 17.1694883,15.3350493" id="Fill-356" fill="#424542"></path>
                        <path d="M22.8289468,16.4763327 C22.8289468,16.8796824 22.4081838,17.2065028 21.889505,17.2065028 C21.3708262,17.2065028 20.9500632,16.8796824 20.9500632,16.4763327 C20.9500632,16.0729831 21.3708262,15.7461627 21.889505,15.7461627 C22.4081838,15.7461627 22.8289468,16.0729831 22.8289468,16.4763327" id="Fill-357" fill="#5C6162"></path>
                        <path d="M22.5485692,16.4611748 C22.5485692,16.7440001 22.2532487,16.9732181 21.889505,16.9732181 C21.5253681,16.9732181 21.2304408,16.7440001 21.2304408,16.4611748 C21.2304408,16.1783494 21.5253681,15.9491315 21.889505,15.9491315 C22.2532487,15.9491315 22.5485692,16.1783494 22.5485692,16.4611748" id="Fill-358" fill="#E2E7E0"></path>
                        <polygon id="Fill-359" fill="#5C6162" points="28.8077133 16.5101886 32.5324486 16.5101886 32.5324486 16.0740922 28.8077133 16.0740922"></polygon>
                        <path d="M33.6331173,17.3976409 C34.4887997,17.3976409 34.7239551,16.9865275 34.7239551,16.4645021 C34.7239551,16.4064582 34.7239551,16.1517306 34.7239551,16.0936867 C34.7239551,15.5716613 34.4887997,15.1605479 33.6331173,15.1605479 C32.6433412,15.1605479 32.6602504,15.6348811 31.8214771,15.6348811 L31.8214771,16.922938 C32.6602504,16.922938 32.6433412,17.3976409 33.6331173,17.3976409" id="Fill-360" fill="#424542"></path>
                        <path d="M27.9740521,16.2563575 C27.9740521,15.8530079 28.3944218,15.5261874 28.9134939,15.5261874 C29.4321727,15.5261874 29.8525424,15.8530079 29.8525424,16.2563575 C29.8525424,16.6593374 29.4321727,16.9865275 28.9134939,16.9865275 C28.3944218,16.9865275 27.9740521,16.6593374 27.9740521,16.2563575" id="Fill-361" fill="#5C6162"></path>
                        <path d="M28.2544296,16.2715154 C28.2544296,15.9886901 28.5493569,15.7591024 28.9134939,15.7591024 C29.2772375,15.7591024 29.5721648,15.9886901 29.5721648,16.2715154 C29.5721648,16.5543408 29.2772375,16.7835587 28.9134939,16.7835587 C28.5493569,16.7835587 28.2544296,16.5543408 28.2544296,16.2715154" id="Fill-362" fill="#E2E7E0"></path>
                        <path d="M24.3967804,120.346438 L24.2626868,120.345699 C24.2670124,119.427348 24.677158,28.4721944 24.677158,25.7829504 C24.677158,23.0974036 22.6366542,6.70906095 22.6158127,6.54417192 L22.7491198,6.52938367 C22.7699614,6.6946424 24.8112516,23.0903792 24.8112516,25.7829504 C24.8112516,28.4721944 24.401106,119.428087 24.3967804,120.346438" id="Fill-365" fill="#5C6162"></path>
                        <path d="M22.70783,120.072486 L22.5737364,120.071746 C22.5776687,119.52532 22.9661863,65.3711053 23.0381486,60.3937489 C23.0731466,57.9551658 23.2229697,50.1961389 23.3672875,42.6929487 C23.5234023,34.612647 23.6704727,26.9804293 23.6704727,26.241756 C23.6704727,24.8265201 22.6264301,11.7344792 22.6158127,11.6024941 L22.7495131,11.5928817 C22.7601304,11.7248669 23.8045664,24.8220837 23.8045664,26.241756 C23.8045664,26.9819081 23.6574959,34.6144955 23.5017743,42.695167 C23.3570633,50.1983571 23.2072402,57.9570144 23.1722422,60.3955974 C23.1002799,65.3722144 22.7117624,119.52606 22.70783,120.072486" id="Fill-366" fill="#5C6162"></path>
                        <path d="M21.4726744,120.478793 L21.3385808,120.476944 C21.3527373,119.554897 22.764456,28.2440855 22.764456,25.9097597 C22.764456,23.5761733 22.4962688,16.5495346 22.4935162,16.478551 L22.6276098,16.4741145 C22.6303624,16.5447284 22.8985497,23.5735853 22.8985497,25.9097597 C22.8985497,28.244825 21.4868309,119.556745 21.4726744,120.478793" id="Fill-367" fill="#5C6162"></path>
                        <path d="M25.9229309,120.237375 C25.9189986,119.314218 25.5159312,27.8943433 25.5159312,25.2050994 C25.5159312,22.511419 28.0165216,6.21956976 28.0416887,6.05542014 L28.1746026,6.07353575 C28.1494355,6.23768537 25.6500249,22.5206617 25.6500249,25.2050994 C25.6500249,27.8943433 26.0530922,119.313848 26.0574178,120.237005 L25.9229309,120.237375" id="Fill-368" fill="#5C6162"></path>
                        <path d="M27.3433009,120.722429 C27.3421211,120.163064 27.2194314,64.7570231 27.1478624,59.780406 C27.1195493,57.8143077 27.0287117,52.2786947 26.932762,46.4184795 C26.7797931,37.0671273 26.6063758,26.4680163 26.6063758,25.5932911 C26.6063758,24.1725096 28.1600529,11.3178202 28.1757823,11.1880533 L28.3090895,11.2024718 C28.29336,11.331869 26.7408627,24.179534 26.7408627,25.5932911 C26.7408627,26.4669072 26.9138867,37.0656485 27.0672489,46.416631 C27.1628053,52.2768462 27.2536429,57.8124592 27.281956,59.7789272 C27.3539182,64.7562837 27.476608,120.163064 27.4777877,120.72206 L27.3433009,120.722429" id="Fill-369" fill="#5C6162"></path>
                        <path d="M28.8423181,120.24329 C28.8293413,119.316806 27.5670524,27.5823112 27.5670524,25.2472459 C27.5670524,22.9103322 28.0365767,16.2596848 28.0412955,16.192768 L28.1749959,16.2009015 C28.170277,16.2678184 27.7015392,22.9143989 27.7015392,25.2472459 C27.7015392,27.5815718 28.9638281,119.315327 28.9764117,120.241811 L28.8423181,120.24329" id="Fill-370" fill="#5C6162"></path>
                    </g>
                    <path d="M58.3302505,48.627817 C57.2398118,54.84511 57.2398118,58.8252113 58.3302505,60.5681207 C58.9046922,64.0274355 60.9409744,66.130315 64.4390972,66.8767593 C68.18453,67.6652095 70.5167244,66.6569511 71.4356805,63.8519843 C74.9836393,65.0448943 76.9144627,64.5674913 77.2281506,62.4197752 C77.5418384,60.2720591 75.9925035,59.0101775 72.580146,58.6341303 C72.1769086,57.0495782 71.2110904,56.1105002 69.6826913,55.8168962 C68.7896758,53.4644753 67.0961289,52.7565475 64.6020506,53.6931131 L62.7799473,54.5627981 L62.7799473,50.3075148 C62.159,48.1356948 60.9629886,47.3127901 59.1919131,47.8388008 L58.3302505,48.627817 Z" id="Path-14" stroke="#000000" stroke-width="2" fill="#D8232A"></path>
                    <path d="M139.985717,70.1817114 C135.472419,71.1474318 131.496044,75.1440288 128.056593,82.1715023 C116.354042,81.343624 108.105799,84.0695144 103.311864,90.3491736 C100.885378,95.8894505 101.333656,100.213532 104.656699,103.321417 C109.108841,107.305141 113.826174,107.169179 118.808698,102.913531 C120.491708,100.483237 120.978416,98.5390413 120.26882,97.0809455 C130.295559,96.5212929 135.962194,94.9900491 137.268726,92.4872143 C142.951427,83.5000656 144.65625,76.4979829 142.383193,71.4809662 C141.956484,70.9418343 141.607213,70.5986115 141.33538,70.4512981 C141.074441,70.3098882 140.624553,70.220026 139.985717,70.1817114 Z" id="Path-10" stroke="#000000" stroke-width="2" fill="#D8232A"></path>
                </g>
            </g>
        </g>
    </g>
</svg>