<?xml version="1.0" encoding="UTF-8"?>
<svg width="493px" height="149px" viewBox="0 0 493 149" version="1.1" xmlns="http://www.w3.org/2000/svg" xmlns:xlink="http://www.w3.org/1999/xlink">
    <!-- Generator: Sketch 45.2 (43514) - http://www.bohemiancoding.com/sketch -->
    <title>Group 18</title>
    <desc>Created with Sketch.</desc>
    <defs></defs>
    <g id="Page-1" stroke="none" stroke-width="1" fill="none" fill-rule="evenodd">
        <g id="Group-18" transform="translate(-1.000000, 0.000000)">
            <polygon id="Fill-1" fill="#0B0C09" points="179.3408 56.9192 179.3408 102.1552 171.0488 102.1552 171.0488 56.9192 162.2388 56.9192 162.2388 49.4412 188.2258 49.4412 188.2258 56.9192"></polygon>
            <path d="M209.3242,102.155 L209.3242,99.194 C208.6582,100.082 207.6212,101.119 206.6592,101.636 C205.5492,102.303 204.1412,102.747 202.7352,102.747 C199.5522,102.747 197.4042,101.785 195.6282,99.712 C194.0732,97.935 193.4072,95.788 193.4072,91.272 L193.4072,63.138 L201.2542,63.138 L201.2542,91.198 C201.2542,94.233 202.9572,95.714 205.1042,95.714 C207.2512,95.714 208.9542,94.233 208.9542,91.198 L208.9542,63.138 L216.8022,63.138 L216.8022,102.155 L209.3242,102.155 Z" id="Fill-2" fill="#0B0C09"></path>
            <path d="M238.8633,70.1716 C235.1613,70.1716 232.3473,72.6886 232.3473,76.9086 L232.3473,102.1546 L224.5003,102.1546 L224.5003,63.1386 L232.0513,63.1386 L232.0513,67.2846 C232.8663,66.0996 234.1253,64.9886 235.4573,64.1746 C237.1603,63.1386 239.2333,62.5466 241.5283,62.5466 L241.5283,70.1716 L238.8633,70.1716 Z" id="Fill-4" fill="#0B0C09"></path>
            <path d="M252.1143,99.7859 C249.6723,97.8609 248.1903,94.8989 248.1903,90.3089 L248.1903,69.1349 L244.1923,69.1349 L244.1923,63.1389 L248.1903,63.1389 L248.1903,53.1429 L256.0383,53.1429 L256.0383,63.1389 L261.4433,63.1389 L261.4433,69.1349 L256.0383,69.1349 L256.0383,89.8649 C256.0383,93.4929 257.8893,95.1219 261.5913,95.1219 L261.5913,102.1549 C257.8893,102.1549 254.7803,101.8589 252.1143,99.7859" id="Fill-6" fill="#0B0C09"></path>
            <path d="M270.6221,99.7859 C268.1791,97.9349 266.6981,94.9739 266.6981,90.3089 L266.6981,49.4419 L274.5461,49.4419 L274.5461,89.8649 C274.5461,93.3449 276.2491,95.1219 279.8761,95.1219 L279.8761,102.1549 C276.2491,102.1549 273.2131,101.7849 270.6221,99.7859" id="Fill-8" fill="#0B0C09"></path>
            <path d="M298.7539,71.0603 C298.0879,70.1713 297.1989,69.5053 295.7929,69.5053 C294.3859,69.5053 293.4979,70.1713 292.8309,71.0603 C291.9429,72.1703 291.6469,75.1313 291.6469,79.1293 L299.8649,79.1293 C299.8649,75.1313 299.6429,72.1703 298.7539,71.0603 L298.7539,71.0603 Z M291.6469,84.9053 C291.6469,89.3463 291.8689,92.7523 292.8309,94.1593 C293.4239,95.0473 294.4599,95.7133 295.8669,95.7133 C297.1989,95.7133 298.0879,95.1223 298.8279,94.1593 C299.4209,93.4183 299.7909,91.8643 299.7909,90.6793 L307.5649,90.6793 C307.4159,93.9373 306.5279,97.1953 304.3069,99.6373 C302.3079,101.8593 299.2729,102.7473 295.8669,102.7473 C292.2389,102.7473 289.7959,101.9333 287.4269,99.5643 C284.0959,96.2323 283.7989,89.7173 283.7989,82.6103 C283.7989,75.5023 284.0959,68.9873 287.4269,65.6553 C289.7959,63.2863 292.6089,62.5463 295.7929,62.5463 C299.0509,62.5463 301.8629,63.2123 304.1589,65.6553 C307.9349,69.6533 307.6389,77.5753 307.7129,84.9053 L291.6469,84.9053 Z" id="Fill-10" fill="#0B0C09"></path>
            <path d="M327.627,62.1755 L323.111,84.2375 L332.144,84.2375 L327.627,62.1755 Z M335.845,102.1545 L333.698,91.7155 L321.482,91.7155 L319.409,102.1545 L310.673,102.1545 L323.629,49.4415 L331.699,49.4415 L344.507,102.1545 L335.845,102.1545 Z" id="Fill-12" fill="#D82F2C"></path>
            <path d="M352.501,99.7859 C350.058,97.9349 348.577,94.9739 348.577,90.3089 L348.577,49.4419 L356.425,49.4419 L356.425,89.8649 C356.425,93.3449 358.128,95.1219 361.755,95.1219 L361.755,102.1549 C358.128,102.1549 355.092,101.7849 352.501,99.7859" id="Fill-14" fill="#D82F2C"></path>
            <path d="M381.0771,84.905 L378.4861,84.905 C376.7831,84.905 375.5241,85.052 374.4141,86.09 C373.4521,86.977 372.8591,88.903 372.8591,90.458 C372.8591,93.937 374.2651,95.862 376.9311,95.862 C379.3011,95.862 381.0771,93.863 381.0771,90.679 L381.0771,84.905 Z M381.5211,102.155 L381.5211,98.823 C380.8551,99.786 380.0411,100.822 379.1521,101.415 C377.9681,102.229 376.7091,102.747 374.7101,102.747 C371.4531,102.747 369.3801,101.785 367.3811,99.49 C365.8261,97.638 365.0121,94.677 365.0121,90.754 C365.0121,87.2 366.2701,84.091 368.6391,82.017 C370.5641,80.314 373.0821,79.352 377.5981,79.352 L381.0771,79.352 L381.0771,73.947 C381.0771,71.06 379.7451,69.431 377.3021,69.431 C376.1171,69.431 375.3031,69.876 374.7101,70.542 C373.8951,71.43 373.5251,72.541 373.5251,74.17 L365.6781,74.17 C365.6781,71.06 366.5661,68.173 369.0101,65.729 C370.8601,63.879 374.0441,62.546 377.2271,62.546 C380.4851,62.546 383.5201,63.36 385.5191,65.433 C387.5931,67.507 388.9251,70.394 388.9251,74.614 L388.9251,102.155 L381.5211,102.155 Z" id="Fill-16" fill="#D82F2C"></path>
            <path d="M410.7646,70.1716 C407.0626,70.1716 404.2486,72.6886 404.2486,76.9086 L404.2486,102.1546 L396.4016,102.1546 L396.4016,63.1386 L403.9526,63.1386 L403.9526,67.2846 C404.7676,66.0996 406.0266,64.9886 407.3596,64.1746 C409.0616,63.1386 411.1346,62.5466 413.4296,62.5466 L413.4296,70.1716 L410.7646,70.1716 Z" id="Fill-18" fill="#D82F2C"></path>
            <path d="M449.7061,102.155 L449.7061,74.095 C449.7061,71.06 447.9301,69.579 445.7821,69.579 C443.6361,69.579 441.9331,71.06 441.9331,74.095 L441.9331,102.155 L434.0851,102.155 L434.0851,74.095 C434.0851,71.06 432.3821,69.579 430.2351,69.579 C428.0881,69.579 426.3851,71.06 426.3851,74.095 L426.3851,102.155 L418.5371,102.155 L418.5371,63.138 L426.0891,63.138 L426.0891,66.026 C426.7551,65.137 427.7181,64.101 428.6811,63.582 C429.7911,62.916 431.1971,62.546 432.6041,62.546 C435.7141,62.546 438.5271,64.101 440.2291,66.544 C441.1921,65.433 442.4511,64.323 443.7091,63.582 C444.8941,62.916 446.6711,62.546 447.8551,62.546 C451.4831,62.546 453.4821,63.509 455.2591,65.581 C456.8131,67.358 457.5541,69.505 457.5541,74.021 L457.5541,102.155 L449.7061,102.155 Z" id="Fill-20" fill="#D82F2C"></path>
            <path d="M223.3604,137.1277 C222.7024,136.4697 222.2744,135.5487 222.2744,134.0027 L222.2744,114.7567 L223.5244,114.7567 L223.5244,134.0677 C223.5244,136.0097 224.4464,137.0627 226.3864,137.0627 L226.3864,138.1807 C225.2684,138.1807 224.1824,137.9497 223.3604,137.1277" id="Fill-22" fill="#0B0C09"></path>
            <path d="M234.2178,123.278 C233.8228,122.85 233.2318,122.521 232.4418,122.521 C231.6528,122.521 231.0598,122.85 230.6648,123.278 C229.8758,124.132 229.7438,125.646 229.7108,128.87 L235.1718,128.87 C235.1398,125.646 235.0078,124.132 234.2178,123.278 L234.2178,123.278 Z M229.7108,129.923 C229.7108,133.871 229.8428,135.614 230.6978,136.568 C231.0928,136.996 231.7178,137.325 232.5078,137.325 C233.1648,137.325 233.8568,137.128 234.3168,136.667 C234.9088,136.108 235.1718,135.219 235.1718,134.003 L236.3898,134.003 C236.3898,135.647 236.0278,136.568 235.2388,137.391 C234.5468,138.082 233.5608,138.444 232.5078,138.444 C231.2898,138.444 230.3688,137.983 229.7438,137.292 C228.7568,136.207 228.4608,134.233 228.4608,129.923 C228.4608,125.613 228.7238,123.639 229.7108,122.553 C230.3358,121.863 231.2248,121.402 232.4418,121.402 C233.6588,121.402 234.5468,121.863 235.1718,122.553 C236.1588,123.639 236.4218,125.613 236.4218,129.923 L229.7108,129.923 Z" id="Fill-24" fill="#0B0C09"></path>
            <path d="M245.6016,129.9226 L243.4966,129.9226 C242.6086,129.9226 241.9836,130.1526 241.3906,130.7126 C240.7656,131.3046 240.4046,132.4236 240.4046,133.7056 C240.4046,135.8776 241.1606,137.3246 242.9376,137.3246 C244.5816,137.3246 245.6016,135.8776 245.6016,134.0346 L245.6016,129.9226 Z M245.6016,138.1806 L245.6016,136.6346 C245.4046,137.0946 244.9766,137.5556 244.7466,137.7526 C244.2196,138.1806 243.6276,138.4436 242.7066,138.4436 C241.7866,138.4436 240.9306,138.1146 240.2726,137.4566 C239.6806,136.8316 239.1536,135.5486 239.1536,133.7056 C239.1536,132.1276 239.6146,130.7776 240.5026,129.9556 C241.3256,129.1986 242.2126,128.8696 243.5626,128.8696 L245.6016,128.8696 L245.6016,125.6466 C245.6016,123.6066 244.7796,122.4876 243.0686,122.4876 C242.3776,122.4876 241.8186,122.7516 241.4236,123.1466 C240.7986,123.7716 240.6016,124.4946 240.6016,125.7446 L239.3516,125.7446 C239.3516,124.5276 239.5806,123.3106 240.4696,122.4226 C241.1276,121.7646 241.9166,121.4016 243.0686,121.4016 C244.3186,121.4016 245.2066,121.7646 245.7986,122.3566 C246.5226,123.0796 246.8516,124.0676 246.8516,125.6126 L246.8516,138.1806 L245.6016,138.1806 Z" id="Fill-26" fill="#0B0C09"></path>
            <polygon id="Fill-28" fill="#0B0C09" points="254.0908 138.1804 252.7758 138.1804 248.9918 121.6654 250.3738 121.6654 253.4338 136.2394 256.4928 121.6654 257.8738 121.6654"></polygon>
            <path d="M265.3437,123.278 C264.9487,122.85 264.3577,122.521 263.5677,122.521 C262.7787,122.521 262.1857,122.85 261.7907,123.278 C261.0017,124.132 260.8697,125.646 260.8367,128.87 L266.2977,128.87 C266.2657,125.646 266.1337,124.132 265.3437,123.278 L265.3437,123.278 Z M260.8367,129.923 C260.8367,133.871 260.9687,135.614 261.8237,136.568 C262.2187,136.996 262.8437,137.325 263.6337,137.325 C264.2907,137.325 264.9827,137.128 265.4427,136.667 C266.0347,136.108 266.2977,135.219 266.2977,134.003 L267.5157,134.003 C267.5157,135.647 267.1537,136.568 266.3647,137.391 C265.6727,138.082 264.6867,138.444 263.6337,138.444 C262.4157,138.444 261.4947,137.983 260.8697,137.292 C259.8827,136.207 259.5867,134.233 259.5867,129.923 C259.5867,125.613 259.8507,123.639 260.8367,122.553 C261.4617,121.863 262.3507,121.402 263.5677,121.402 C264.7847,121.402 265.6727,121.863 266.2977,122.553 C267.2847,123.639 267.5477,125.613 267.5477,129.923 L260.8367,129.923 Z" id="Fill-30" fill="#0B0C09"></path>
            <path d="M282.8818,123.278 C282.4868,122.85 281.8958,122.521 281.1058,122.521 C280.3168,122.521 279.7238,122.85 279.3288,123.278 C278.4738,124.231 278.3748,125.975 278.3748,129.923 C278.3748,133.871 278.4738,135.614 279.3288,136.568 C279.7238,136.996 280.3168,137.325 281.1058,137.325 C281.8958,137.325 282.4868,136.996 282.8818,136.568 C283.7368,135.614 283.8358,133.871 283.8358,129.923 C283.8358,125.975 283.7368,124.231 282.8818,123.278 M283.8358,137.292 C283.2108,137.983 282.3228,138.444 281.1058,138.444 C279.8888,138.444 278.9998,137.983 278.3748,137.292 C277.3878,136.207 277.1248,134.233 277.1248,129.923 C277.1248,125.613 277.3878,123.639 278.3748,122.553 C278.9998,121.863 279.8888,121.402 281.1058,121.402 C282.3228,121.402 283.2108,121.863 283.8358,122.553 C284.8228,123.639 285.0858,125.613 285.0858,129.923 C285.0858,134.233 284.8228,136.207 283.8358,137.292" id="Fill-32" fill="#0B0C09"></path>
            <path d="M295.1543,138.1804 L295.1543,125.5474 C295.1543,123.5404 294.0363,122.5534 292.6213,122.5534 C291.2073,122.5534 290.0893,123.5404 290.0893,125.5474 L290.0893,138.1804 L288.8383,138.1804 L288.8383,121.6654 L290.0893,121.6654 L290.0893,123.0144 C290.2533,122.6534 290.6803,122.2254 290.9433,122.0274 C291.4693,121.6324 292.0943,121.4024 292.9183,121.4024 C293.9373,121.4024 294.7593,121.7974 295.3843,122.4544 C296.0433,123.1134 296.4053,124.0344 296.4053,125.5804 L296.4053,138.1804 L295.1543,138.1804 Z" id="Fill-34" fill="#0B0C09"></path>
            <path d="M307.6259,134.0027 L307.6259,122.6857 L305.4869,122.6857 L305.4869,121.6657 L307.6259,121.6657 L307.6259,116.5997 L308.8759,116.5997 L308.8759,121.6657 L311.9019,121.6657 L311.9019,122.6857 L308.8759,122.6857 L308.8759,134.0677 C308.8759,136.2067 310.0269,137.0627 312.0669,137.0627 L312.0669,138.1807 C310.8169,138.1807 309.6329,138.0487 308.7119,137.1277 C307.9879,136.4037 307.6259,135.3517 307.6259,134.0027 Z" id="Fill-36" fill="#0B0C09"></path>
            <path d="M314.896,138.181 L316.147,138.181 L316.147,121.666 L314.896,121.666 L314.896,138.181 Z M314.601,117.225 L316.444,117.225 L316.444,115.383 L314.601,115.383 L314.601,117.225 Z" id="Fill-38" fill="#0B0C09"></path>
            <path d="M333.123,138.1804 L333.123,125.5474 C333.123,123.5404 332.005,122.5534 330.59,122.5534 C329.176,122.5534 328.058,123.5404 328.058,125.5474 L328.058,138.1804 L326.807,138.1804 L326.807,125.5474 C326.807,123.5404 325.688,122.5534 324.273,122.5534 C322.859,122.5534 321.741,123.5404 321.741,125.5474 L321.741,138.1804 L320.49,138.1804 L320.49,121.6654 L321.741,121.6654 L321.741,123.0144 C321.905,122.6534 322.333,122.2254 322.596,122.0274 C323.155,121.6324 323.747,121.4024 324.57,121.4024 C325.754,121.4024 326.972,122.1594 327.597,123.1464 C327.827,122.7514 328.255,122.2904 328.616,122.0274 C329.176,121.6324 329.866,121.4024 330.688,121.4024 C331.972,121.4024 332.728,121.7974 333.353,122.4544 C334.012,123.1134 334.374,124.0344 334.374,125.5804 L334.374,138.1804 L333.123,138.1804 Z" id="Fill-40" fill="#0B0C09"></path>
            <path d="M343.7197,123.278 C343.3247,122.85 342.7337,122.521 341.9437,122.521 C341.1547,122.521 340.5617,122.85 340.1667,123.278 C339.3777,124.132 339.2457,125.646 339.2127,128.87 L344.6737,128.87 C344.6417,125.646 344.5097,124.132 343.7197,123.278 L343.7197,123.278 Z M339.2127,129.923 C339.2127,133.871 339.3447,135.614 340.1997,136.568 C340.5947,136.996 341.2197,137.325 342.0097,137.325 C342.6667,137.325 343.3587,137.128 343.8187,136.667 C344.4107,136.108 344.6737,135.219 344.6737,134.003 L345.8917,134.003 C345.8917,135.647 345.5297,136.568 344.7407,137.391 C344.0487,138.082 343.0627,138.444 342.0097,138.444 C340.7917,138.444 339.8707,137.983 339.2457,137.292 C338.2587,136.207 337.9627,134.233 337.9627,129.923 C337.9627,125.613 338.2257,123.639 339.2127,122.553 C339.8377,121.863 340.7267,121.402 341.9437,121.402 C343.1607,121.402 344.0487,121.863 344.6737,122.553 C345.6607,123.639 345.9237,125.613 345.9237,129.923 L339.2127,129.923 Z" id="Fill-41" fill="#0B0C09"></path>
            <polygon id="Fill-42" fill="#0B0C09" points="349.249 140.8122 349.249 136.2072 350.96 136.2072 350.96 139.5622"></polygon>
            <path d="M367.2129,129.9226 L365.1079,129.9226 C364.2199,129.9226 363.5949,130.1526 363.0019,130.7126 C362.3769,131.3046 362.0159,132.4236 362.0159,133.7056 C362.0159,135.8776 362.7719,137.3246 364.5489,137.3246 C366.1929,137.3246 367.2129,135.8776 367.2129,134.0346 L367.2129,129.9226 Z M367.2129,138.1806 L367.2129,136.6346 C367.0159,137.0946 366.5879,137.5556 366.3579,137.7526 C365.8309,138.1806 365.2389,138.4436 364.3179,138.4436 C363.3979,138.4436 362.5419,138.1146 361.8839,137.4566 C361.2919,136.8316 360.7649,135.5486 360.7649,133.7056 C360.7649,132.1276 361.2259,130.7776 362.1139,129.9556 C362.9369,129.1986 363.8239,128.8696 365.1739,128.8696 L367.2129,128.8696 L367.2129,125.6466 C367.2129,123.6066 366.3909,122.4876 364.6799,122.4876 C363.9889,122.4876 363.4299,122.7516 363.0349,123.1466 C362.4099,123.7716 362.2129,124.4946 362.2129,125.7446 L360.9629,125.7446 C360.9629,124.5276 361.1919,123.3106 362.0809,122.4226 C362.7389,121.7646 363.5279,121.4016 364.6799,121.4016 C365.9299,121.4016 366.8179,121.7646 367.4099,122.3566 C368.1339,123.0796 368.4629,124.0676 368.4629,125.6126 L368.4629,138.1806 L367.2129,138.1806 Z" id="Fill-43" fill="#0B0C09"></path>
            <path d="M377.249,122.5212 C375.144,122.5212 373.894,123.8042 373.894,125.8762 L373.894,138.1802 L372.643,138.1802 L372.643,121.6662 L373.894,121.6662 L373.894,123.4092 C373.992,123.1132 374.288,122.6532 374.452,122.4882 C375.176,121.6992 376.196,121.4022 377.38,121.4022 L377.38,122.5212 L377.249,122.5212 Z" id="Fill-44" fill="#0B0C09"></path>
            <path d="M384.6514,122.5212 C382.5464,122.5212 381.2964,123.8042 381.2964,125.8762 L381.2964,138.1802 L380.0454,138.1802 L380.0454,121.6662 L381.2964,121.6662 L381.2964,123.4092 C381.3944,123.1132 381.6904,122.6532 381.8544,122.4882 C382.5784,121.6992 383.5984,121.4022 384.7824,121.4022 L384.7824,122.5212 L384.6514,122.5212 Z" id="Fill-45" fill="#0B0C09"></path>
            <path d="M387.448,138.181 L388.698,138.181 L388.698,121.666 L387.448,121.666 L387.448,138.181 Z M387.152,117.225 L388.995,117.225 L388.995,115.383 L387.152,115.383 L387.152,117.225 Z" id="Fill-46" fill="#0B0C09"></path>
            <polygon id="Fill-47" fill="#0B0C09" points="396.1016 138.1804 394.7866 138.1804 391.0026 121.6654 392.3846 121.6654 395.4446 136.2394 398.5026 121.6654 399.8846 121.6654"></polygon>
            <path d="M407.3545,123.278 C406.9595,122.85 406.3685,122.521 405.5785,122.521 C404.7895,122.521 404.1965,122.85 403.8015,123.278 C403.0125,124.132 402.8805,125.646 402.8475,128.87 L408.3085,128.87 C408.2765,125.646 408.1445,124.132 407.3545,123.278 L407.3545,123.278 Z M402.8475,129.923 C402.8475,133.871 402.9795,135.614 403.8345,136.568 C404.2295,136.996 404.8545,137.325 405.6445,137.325 C406.3015,137.325 406.9935,137.128 407.4535,136.667 C408.0455,136.108 408.3085,135.219 408.3085,134.003 L409.5265,134.003 C409.5265,135.647 409.1645,136.568 408.3755,137.391 C407.6835,138.082 406.6975,138.444 405.6445,138.444 C404.4265,138.444 403.5055,137.983 402.8805,137.292 C401.8935,136.207 401.5975,134.233 401.5975,129.923 C401.5975,125.613 401.8605,123.639 402.8475,122.553 C403.4725,121.863 404.3615,121.402 405.5785,121.402 C406.7955,121.402 407.6835,121.863 408.3085,122.553 C409.2955,123.639 409.5585,125.613 409.5585,129.923 L402.8475,129.923 Z" id="Fill-48" fill="#0B0C09"></path>
            <path d="M424.8916,123.278 C424.4966,122.85 423.9056,122.521 423.1156,122.521 C422.3266,122.521 421.7336,122.85 421.3386,123.278 C420.4836,124.231 420.3846,125.975 420.3846,129.923 C420.3846,133.871 420.4836,135.614 421.3386,136.568 C421.7336,136.996 422.3266,137.325 423.1156,137.325 C423.9056,137.325 424.4966,136.996 424.8916,136.568 C425.7466,135.614 425.8456,133.871 425.8456,129.923 C425.8456,125.975 425.7466,124.231 424.8916,123.278 M425.8456,137.292 C425.2206,137.983 424.3326,138.444 423.1156,138.444 C421.8986,138.444 421.0096,137.983 420.3846,137.292 C419.3976,136.207 419.1346,134.233 419.1346,129.923 C419.1346,125.613 419.3976,123.639 420.3846,122.553 C421.0096,121.863 421.8986,121.402 423.1156,121.402 C424.3326,121.402 425.2206,121.863 425.8456,122.553 C426.8326,123.639 427.0956,125.613 427.0956,129.923 C427.0956,134.233 426.8326,136.207 425.8456,137.292" id="Fill-49" fill="#0B0C09"></path>
            <path d="M437.165,138.1804 L437.165,125.5474 C437.165,123.5404 436.047,122.5534 434.632,122.5534 C433.218,122.5534 432.099,123.5404 432.099,125.5474 L432.099,138.1804 L430.849,138.1804 L430.849,121.6654 L432.099,121.6654 L432.099,123.0144 C432.264,122.6534 432.691,122.2254 432.954,122.0274 C433.48,121.6324 434.105,121.4024 434.929,121.4024 C435.948,121.4024 436.77,121.7974 437.395,122.4544 C438.054,123.1134 438.415,124.0344 438.415,125.5804 L438.415,138.1804 L437.165,138.1804 Z" id="Fill-50" fill="#0B0C09"></path>
            <path d="M450.7227,137.1277 C449.9987,136.4037 449.6367,135.3517 449.6367,134.0027 L449.6367,122.6857 L447.4977,122.6857 L447.4977,121.6657 L449.6367,121.6657 L449.6367,116.5997 L450.8867,116.5997 L450.8867,121.6657 L453.9127,121.6657 L453.9127,122.6857 L450.8867,122.6857 L450.8867,134.0677 C450.8867,136.2067 452.0377,137.0627 454.0777,137.0627 L454.0777,138.1807 C452.8277,138.1807 451.6437,138.0487 450.7227,137.1277" id="Fill-51" fill="#0B0C09"></path>
            <path d="M456.907,138.181 L458.157,138.181 L458.157,121.666 L456.907,121.666 L456.907,138.181 Z M456.611,117.225 L458.454,117.225 L458.454,115.383 L456.611,115.383 L456.611,117.225 Z" id="Fill-52" fill="#0B0C09"></path>
            <path d="M475.1338,138.1804 L475.1338,125.5474 C475.1338,123.5404 474.0158,122.5534 472.6008,122.5534 C471.1868,122.5534 470.0678,123.5404 470.0678,125.5474 L470.0678,138.1804 L468.8178,138.1804 L468.8178,125.5474 C468.8178,123.5404 467.6988,122.5534 466.2838,122.5534 C464.8698,122.5534 463.7508,123.5404 463.7508,125.5474 L463.7508,138.1804 L462.5008,138.1804 L462.5008,121.6654 L463.7508,121.6654 L463.7508,123.0144 C463.9158,122.6534 464.3438,122.2254 464.6068,122.0274 C465.1658,121.6324 465.7578,121.4024 466.5808,121.4024 C467.7648,121.4024 468.9828,122.1594 469.6078,123.1464 C469.8378,122.7514 470.2658,122.2904 470.6268,122.0274 C471.1868,121.6324 471.8768,121.4024 472.6998,121.4024 C473.9828,121.4024 474.7388,121.7974 475.3638,122.4544 C476.0228,123.1134 476.3838,124.0344 476.3838,125.5804 L476.3838,138.1804 L475.1338,138.1804 Z" id="Fill-53" fill="#0B0C09"></path>
            <path d="M485.7305,123.278 C485.3355,122.85 484.7445,122.521 483.9545,122.521 C483.1655,122.521 482.5725,122.85 482.1775,123.278 C481.3885,124.132 481.2565,125.646 481.2235,128.87 L486.6845,128.87 C486.6525,125.646 486.5205,124.132 485.7305,123.278 L485.7305,123.278 Z M481.2235,129.923 C481.2235,133.871 481.3555,135.614 482.2105,136.568 C482.6055,136.996 483.2305,137.325 484.0205,137.325 C484.6775,137.325 485.3695,137.128 485.8295,136.667 C486.4215,136.108 486.6845,135.219 486.6845,134.003 L487.9025,134.003 C487.9025,135.647 487.5405,136.568 486.7515,137.391 C486.0595,138.082 485.0735,138.444 484.0205,138.444 C482.8025,138.444 481.8815,137.983 481.2565,137.292 C480.2695,136.207 479.9735,134.233 479.9735,129.923 C479.9735,125.613 480.2375,123.639 481.2235,122.553 C481.8485,121.863 482.7375,121.402 483.9545,121.402 C485.1715,121.402 486.0595,121.863 486.6845,122.553 C487.6715,123.639 487.9345,125.613 487.9345,129.923 L481.2235,129.923 Z" id="Fill-54" fill="#0B0C09"></path>
            <polygon id="Fill-55" fill="#0B0C09" points="491.456 138.18 493.364 138.18 493.364 136.272 491.456 136.272"></polygon>
            <g id="Group-17" transform="translate(0.569760, 0.867266)">
                <path d="M51.9702473,18.5288813 C49.7403377,18.5311736 48.3379761,19.9662016 48.2915555,22.1743336 C48.2416963,24.5652827 50.3701682,25.8111896 51.9771244,25.8593295 C53.7514242,25.9126272 55.7245876,23.9801535 55.6242961,22.1938188 C55.5096772,20.1536034 54.382974,18.5294544 51.9702473,18.5288813 L51.9702473,18.5288813 Z M81.6158384,18.5311736 C79.1641413,18.5254427 78.061508,20.4132151 78.031134,22.2608708 C78.0013331,24.0724217 79.9664732,25.9710828 81.7465039,25.8513062 C83.5070493,25.7332487 85.4349383,24.4810379 85.3610091,22.1049892 C85.2916647,19.8945648 83.8423094,18.4893378 81.6158384,18.5311736 L81.6158384,18.5311736 Z M109.778262,127.414491 C112.388706,129.129762 115.039267,130.858214 117.6755,132.60959 C120.141524,134.246348 122.474018,134.079004 124.538876,132.021023 C126.05643,130.5092 126.771078,126.750275 124.368094,124.826971 C122.232172,123.117431 119.914579,121.632544 117.657161,120.078312 C115.612934,118.670793 115.627261,118.705751 114.324618,120.686365 C112.867813,122.90252 111.357136,125.082571 109.778262,127.414491 L109.778262,127.414491 Z M23.7751577,127.446585 C21.994554,124.632119 20.3446157,121.964938 18.6035554,119.359652 C18.4270424,119.095456 17.5622432,118.98141 17.2458952,119.173969 C15.6366466,120.152241 14.0789765,121.222208 12.5482419,122.321976 C10.7109018,123.643531 8.43743701,124.530681 7.90675176,127.160037 C7.50501271,129.149248 7.89414369,130.910939 9.38820033,132.23536 C11.0702319,133.727124 13.0955469,134.425153 15.1833291,133.135691 C18.1273141,131.31669 20.9624113,129.320603 23.7751577,127.446585 L23.7751577,127.446585 Z M15.7535579,47.0718391 C13.0978392,46.7211054 10.7086094,49.0965809 10.3762148,51.6342422 C10.1544273,53.3260163 10.6730776,54.9387035 11.8840257,56.0178399 C14.184999,58.068371 16.6888476,59.8925299 19.1181941,61.7986413 C19.7268201,62.2766019 20.1319977,62.1614099 20.6403323,61.4817202 C22.3166329,59.2386294 24.056547,57.0385207 25.8709633,54.905464 C26.4933436,54.1736227 26.2457669,53.8389356 25.6703803,53.3884836 C23.8204322,51.9402745 22.037536,50.3975048 20.1148049,49.0547451 C18.7743375,48.117736 17.5926172,46.658065 15.7535579,47.0718391 L15.7535579,47.0718391 Z M113.65639,62.161983 C113.905113,62.0571068 114.258139,61.9848969 114.514885,61.7871794 C116.395208,60.3424089 118.310488,58.9354626 120.102554,57.386962 C121.130685,56.4980928 122.173717,55.4911663 122.819021,54.321481 C124.510222,51.2577193 121.776562,47.132587 118.454908,46.9973368 C116.307524,46.9096534 114.902297,48.0191638 113.410533,49.1493056 C111.61159,50.5126968 109.865372,51.9454323 108.063564,53.3042387 C107.334588,53.8544092 107.166671,54.21202 107.869285,55.0235214 C109.828694,57.2883898 111.652853,59.6701694 113.65639,62.161983 L113.65639,62.161983 Z M54.9692494,11.30159 C61.6440778,13.8363858 64.5662852,20.1461532 62.1266231,26.4009035 C61.2165495,28.7351163 59.5683305,30.5386438 57.4902909,31.6871246 C54.2328233,33.4872136 50.715171,33.9605894 46.9849007,31.8733802 C47.3849204,34.980124 48.5970147,37.2467117 50.2744615,39.371172 C61.3214257,35.9274488 72.3431738,35.9320335 83.3116242,39.3488213 C85.4509849,36.8094408 86.6636523,33.9565778 86.3971635,32.1513309 C79.356701,35.3010568 73.445234,30.9489793 71.6915657,26.7854497 C69.1481736,20.7461828 71.2164706,14.3057499 78.6787305,11.2901281 C72.5672537,6.03370791 60.9368795,6.1139411 54.9692494,11.30159 L54.9692494,11.30159 Z M47.8623079,136.1026 C56.1756127,141.322342 78.8472202,141.261594 85.7438361,136.080822 C85.3122961,135.034925 84.8956566,133.962093 84.4308772,132.909319 C83.0445623,129.771628 81.6118267,126.653995 80.2576051,123.50255 C79.7509898,122.323695 79.1790417,121.694438 77.6889968,121.719081 C71.1236293,121.829115 64.5542503,121.854904 57.9894559,121.721373 C55.4919113,121.670368 53.878078,121.906483 52.9393496,124.810351 C51.6865657,128.687907 49.6165493,132.300693 47.8623079,136.1026 L47.8623079,136.1026 Z M47.9391025,48.2598634 C49.8469332,52.6256952 51.7713836,57.0001234 53.6648869,61.3877327 C54.0626143,62.3104144 54.626539,62.6582826 55.6775938,62.6508324 C63.1180761,62.599827 70.5585584,62.6044118 77.9990407,62.6468208 C78.9916399,62.6525517 79.5320678,62.3155723 79.8850938,61.4295686 C80.5802571,59.6833505 81.2920401,57.9417172 82.0605595,56.2264462 C83.2652036,53.5392074 84.5231454,50.8754654 85.7472746,48.2260508 C77.7761071,42.9524378 55.0706871,43.0034432 47.9391025,48.2598634 L47.9391025,48.2598634 Z M114.915478,95.8839933 C109.461914,95.8839933 104.326989,95.8713853 99.1920651,95.912648 C98.8734247,95.9149404 98.4504812,96.2668203 98.2590677,96.5717064 C97.3833797,97.962033 96.5672936,99.3901838 95.7414648,100.811457 C94.6514396,102.689487 93.5677184,104.571529 92.4874358,106.454143 C90.6409262,109.67436 88.7714929,112.881395 86.9754156,116.128547 C86.5536182,116.890189 85.9249338,117.979641 86.1759491,118.601448 C87.9324829,122.947795 89.9228391,127.199008 91.7756528,131.508103 C92.3040456,132.737964 93.0123901,132.616468 93.7952368,131.943655 C96.4148505,129.693687 99.021283,127.425953 101.586453,125.114091 C105.351682,121.7208 107.902524,117.426605 110.162235,112.985125 C112.239128,108.902975 113.484462,104.50505 114.263297,99.9867749 C114.486231,98.6938743 114.676498,97.396389 114.915478,95.8839933 L114.915478,95.8839933 Z M18.9393887,95.8828471 C18.917038,96.3052176 18.8591555,96.593484 18.8941142,96.8697154 C19.4689277,101.376528 20.3572238,105.851821 22.1991486,109.988415 C23.7969353,113.578851 25.7953148,117.029451 27.9512953,120.321877 C31.0884131,125.113518 35.4720108,128.732608 40.0613493,132.082917 C40.7943369,132.617614 41.427606,132.611883 41.8855083,131.568851 C43.5606627,127.750898 45.3108924,123.966183 47.035906,120.17058 C47.6663097,118.784265 47.6686021,117.488499 46.7883293,116.150897 C45.8066189,114.65856 44.9848018,113.062493 44.0781668,111.520869 C42.8574761,109.444549 41.6052652,107.387141 40.3994749,105.302797 C39.1902461,103.213295 37.8835913,101.163337 36.8674952,98.9804214 C35.5092619,96.0639449 35.418713,95.8828471 32.3475011,95.8828471 L26.9088369,95.8828471 L18.9393887,95.8828471 Z M114.679363,88.5271828 C115.536712,76.8830544 102.997984,56.237335 92.4306995,51.7179139 C92.3447353,51.8227902 92.2266779,51.9207893 92.1693685,52.0462969 C90.335467,56.0533717 88.468326,60.0455461 86.7117922,64.0870065 C86.3679357,64.8784497 86.0727922,66.0538659 86.4109177,66.7203745 C88.3932507,70.6311695 90.5354769,74.4623044 92.6914573,78.2825504 C94.5001427,81.4872933 96.3902075,84.6467618 98.2762605,87.8079495 C98.4596507,88.1145549 98.8625359,88.4939433 99.166849,88.4962357 C104.304066,88.5392178 109.441282,88.5271828 114.679363,88.5271828 L114.679363,88.5271828 Z M41.294075,51.6474233 C30.2408067,56.8671655 17.6613885,77.6951289 19.0322299,88.5260366 C24.1912241,88.5260366 29.3691304,88.5329137 34.5470367,88.5054052 C34.8106601,88.504259 35.1808789,88.2675711 35.3189946,88.0331756 C37.2566262,84.7378838 39.183369,81.436288 41.0705683,78.1117684 C42.8809729,74.9207797 44.5011103,71.6123068 46.4771392,68.5307791 C47.655994,66.6911467 47.5837841,65.1982362 46.6106701,63.3861123 C45.6564682,61.6089471 44.9853749,59.6816312 44.1543883,57.8356948 C43.2213909,55.763386 42.2494231,53.7094163 41.294075,51.6474233 L41.294075,51.6474233 Z M66.7199733,114.413276 C70.641084,114.413276 74.5616216,114.431042 78.4821592,114.388633 C78.9400615,114.384048 79.5813539,114.174295 79.8163225,113.83617 C80.5624912,112.762764 81.1630939,111.587348 81.8072519,110.445171 C83.5569085,107.336135 85.2807759,104.213345 87.051064,101.11577 C88.6545816,98.3110474 90.3188473,95.541283 91.9166339,92.7336944 C92.0702232,92.4643401 92.0587613,91.9800755 91.9235111,91.6877974 C91.5229182,90.8184135 91.0426653,89.982269 90.5561083,89.154721 C89.252892,86.9425773 87.8969511,84.7613806 86.6229626,82.5337634 C84.3718485,78.5966061 82.1826286,74.6233438 79.9091638,70.6987946 C79.7022768,70.3406107 79.0735924,70.0299936 78.639187,70.0277013 C70.7488257,69.9881578 62.8584645,69.9904501 54.9681032,70.0225434 C54.5634987,70.0242627 54.0007201,70.2638161 53.7858098,70.579591 C53.0774653,71.6209032 52.4888976,72.7435948 51.8665173,73.8422164 C50.1581234,76.8561189 48.4760918,79.8860681 46.7453473,82.8873625 C45.4627624,85.1121143 44.036904,87.2577791 42.8322599,89.5209282 C42.0557172,90.9805992 41.1078194,92.2293715 42.5445666,94.2644291 C45.058731,97.8279289 46.9212872,101.849904 49.0749753,105.669004 C50.4968221,108.190046 51.9880132,110.67269 53.367451,113.216655 C53.8425461,114.092343 54.3617695,114.460843 55.3996431,114.440784 C59.1717493,114.369721 62.9461479,114.413276 66.7199733,114.413276 L66.7199733,114.413276 Z M29.0178237,132.813612 C25.7620754,134.997674 22.6112033,137.264262 19.306169,139.279834 C16.4796682,141.003702 13.3660473,141.60717 10.0478318,140.75154 C5.95364665,139.695327 2.94432888,137.212683 1.36831977,133.405045 C0.56254929,131.45939 0.44449188,129.109131 0.500082019,126.953724 C0.577449739,123.955295 2.01133149,121.336827 4.15585007,119.295465 C5.57024661,117.94984 7.36001987,116.997931 8.98703437,115.877531 C10.9286776,114.53993 12.8766249,113.210351 14.8698466,111.845241 C14.2486124,109.889843 13.5379756,108.070842 13.0955469,106.188801 C11.1733888,98.0147577 10.2902506,89.7805399 12.4937979,81.5188135 C13.552876,77.5489898 14.9065246,73.6582532 16.0532861,69.7107802 C16.1765014,69.2866904 15.9741991,68.5153056 15.6452431,68.2545477 C13.4955666,66.5478731 11.3006158,64.8933501 9.06096353,63.3047329 C4.17820074,59.8420976 1.82221039,53.8481051 3.70883658,48.1750454 C5.22639008,43.6103499 10.767065,39.6582922 15.1758789,39.6519881 C19.0356685,39.6474034 22.079945,41.1832959 24.8972762,43.5971688 C26.8813284,45.2969662 28.9885959,46.8540632 31.0568929,48.4541423 C31.7887342,49.0197863 32.4959325,48.7143271 33.1727568,48.2764831 C35.8003938,46.5749664 38.4240191,44.8665725 41.0654104,43.1856871 C41.5811952,42.8578772 42.1691899,42.64354 42.9342707,42.2756135 C42.8036052,41.8962251 42.7153487,41.4417614 42.5027307,41.0554959 C39.2125968,35.076977 38.3403474,28.7740867 39.6768031,22.0792 C41.1118311,14.8885868 44.8678906,9.31524543 50.7959772,5.07320199 C53.3112878,3.27311304 56.0346315,1.89252905 58.9642892,1.10624378 C63.3341327,-0.0663070016 67.7750398,-0.360304338 72.3105075,0.564669738 C79.3119996,1.99282054 84.9862055,5.52021549 89.1927171,11.1709245 C93.7866404,17.3408569 95.4016199,24.3652728 94.2325077,32.0321273 C93.74767,35.2105079 92.7608017,38.1682472 91.1928159,40.9511927 C90.6741657,41.8715821 90.6449379,42.23607 91.9028797,42.7747786 C94.1070001,43.7186647 96.0985025,45.1726048 98.1421565,46.4706632 C99.027014,47.0322955 99.8316383,47.7228741 100.652882,48.3802132 C101.442606,49.011763 102.163559,48.7899755 102.855283,48.2415244 C105.536218,46.1124793 108.089353,43.7966056 110.915281,41.8818978 C114.601996,39.383207 118.627983,38.8582526 122.888365,40.6382833 C125.637498,41.7867641 127.724134,43.6304082 129.093256,46.1823968 C130.477852,48.762467 131.006818,51.5528628 130.462378,54.528368 C129.746011,58.445467 127.412371,61.1796995 124.334855,63.445141 C122.199506,65.0165654 120.080776,66.6103404 117.960901,68.2029693 C116.865718,69.0253595 117.609021,70.0128008 117.876083,70.8271677 C118.631994,73.128141 119.75182,75.3230919 120.3593,77.6550123 C122.452813,85.6886471 123.30787,93.8093922 121.378835,102.023552 C120.62407,105.239183 119.822311,108.443926 118.969547,111.949544 C119.996532,112.655023 121.252754,113.519249 122.50955,114.382329 C124.774991,115.939999 127.238723,117.278174 129.259454,119.105771 C132.203439,121.769513 133.523275,125.318113 133.216096,129.315445 C132.860778,133.926561 130.590751,137.5233 126.545852,139.647187 C123.517623,141.237524 120.078484,141.941284 116.78835,140.354959 C114.10455,139.060912 111.602994,137.382319 109.056163,135.816053 C107.543194,134.885921 106.09957,133.842889 104.567116,132.812466 C93.6995301,142.260497 81.3413262,147.427515 66.7881715,147.427515 C52.2269935,147.427515 39.8785323,142.230123 29.0178237,132.813612 L29.0178237,132.813612 Z" id="Fill-56" fill="#0B0C09"></path>
                <path d="M66.7201453,114.41276 C62.9463198,114.41276 59.1719212,114.369778 55.3998151,114.440842 C54.3619414,114.460327 53.8427181,114.0924 53.3676229,113.216139 C51.9881852,110.67332 50.4964209,108.190676 49.0751472,105.668488 C46.9214591,101.849388 45.0589029,97.8285593 42.5441654,94.2644864 C41.1079913,92.2288557 42.0553161,90.9806565 42.8318587,89.5209855 C44.0370759,87.2572633 45.4623612,85.1115985 46.7455192,82.8868467 C48.4762638,79.8855523 50.1582953,76.8561762 51.8666892,73.8417006 C52.4884964,72.743079 53.0776373,71.6203874 53.7859817,70.5796483 C54.0008921,70.2638734 54.5636706,70.0237469 54.9682751,70.0220276 C62.8586364,69.9899343 70.7489976,69.987642 78.6393589,70.0271855 C79.0737643,70.0294778 79.7018756,70.3400949 79.9093357,70.6982788 C82.1828005,74.622828 84.3714473,78.5960903 86.6231345,82.5332476 C87.897123,84.762011 89.2530639,86.9426346 90.5557071,89.1547783 C91.0428372,89.9817532 91.5225171,90.8178977 91.923683,91.6884278 C92.0583602,91.9795597 92.069822,92.4638243 91.9162328,92.7337517 C90.3190192,95.5413403 88.6547536,98.3111047 87.0512359,101.115828 C85.2809479,104.212829 83.5570804,107.336193 81.8068507,110.444656 C81.1632659,111.587405 80.56209,112.762249 79.8164944,113.835654 C79.5815258,114.17378 78.9402334,114.383532 78.481758,114.388117 C74.5617935,114.430526 70.6406828,114.41276 66.7201453,114.41276" id="Fill-57" fill="#D8232A"></path>
                <path d="M41.2941323,51.6471368 C42.2494804,53.7091298 43.2214482,55.7636726 44.1544456,57.8354082 C44.9848591,59.6813447 45.6565256,61.6092337 46.6107274,63.3863989 C47.5838414,65.1979497 47.6560513,66.6908601 46.4766234,68.5304926 C44.5011676,71.6125933 42.8810302,74.9204932 41.0706256,78.1114818 C39.1834263,81.4360014 37.2566835,84.7381703 35.319052,88.0334621 C35.1809362,88.2672846 34.8107174,88.5039725 34.547094,88.5045456 C29.3691877,88.5326272 24.1912814,88.52575 19.0322872,88.52575 C17.6614458,77.6954154 30.240864,56.8674521 41.2941323,51.6471368" id="Fill-58" fill="#FFFFFE"></path>
                <path d="M114.679306,88.526667 C109.441225,88.526667 104.304008,88.538702 99.1667917,88.496293 C98.8624786,88.4940006 98.4595934,88.1146123 98.2762032,87.8074337 C96.3901501,84.646246 94.5000854,81.4879237 92.6914,78.2820347 C90.5359927,74.4617886 88.3931934,70.6306537 86.4108604,66.7198587 C86.0727348,66.0539232 86.3678784,64.8779339 86.7117349,64.0864908 C88.4682687,60.0456034 90.3354097,56.0528559 92.1693112,52.0457811 C92.2266206,51.9202735 92.344678,51.8228475 92.4306422,51.7173981 C102.997927,56.2368192 115.537228,76.8836848 114.679306,88.526667" id="Fill-59" fill="#FFFFFE"></path>
                <path d="M18.939274,95.8823314 L26.9087223,95.8823314 L32.3473865,95.8823314 C35.4185984,95.8823314 35.5091473,96.0634291 36.8673806,98.9804787 C37.8840498,101.163395 39.1901315,103.21278 40.3993603,105.302281 C41.6051506,107.386625 42.8573614,109.444033 44.0780521,111.520353 C44.9846872,113.063123 45.8065043,114.65919 46.7882147,116.150382 C47.6684874,117.487984 47.6661951,118.784323 47.0357914,120.170638 C45.3107778,123.966241 43.5605481,127.750955 41.8859667,131.569482 C41.4274914,132.61194 40.7942222,132.618244 40.0612347,132.082401 C35.4724693,128.732665 31.0888716,125.113575 27.9511807,120.322508 C25.7952002,117.028935 23.7973938,113.578335 22.199034,109.988473 C20.3571091,105.851878 19.4688131,101.376013 18.8939996,96.8703458 C18.8590408,96.5929682 18.9169234,96.3052749 18.939274,95.8823314" id="Fill-60" fill="#FFFFFE"></path>
                <path d="M114.915765,95.8834202 C114.676211,97.3969621 114.485944,98.6938743 114.263584,99.9862018 C113.484748,104.504477 112.239415,108.903548 110.162521,112.985125 C107.902238,117.426605 105.351395,121.720227 101.586166,125.114091 C99.0209965,127.42538 96.4151371,129.693114 93.7955234,131.943655 C93.0126767,132.617041 92.3043322,132.738537 91.7753662,131.50753 C89.9231257,127.199581 87.9327695,122.948368 86.1762357,118.602021 C85.9252204,117.980214 86.5539048,116.890189 86.9757021,116.127974 C88.7717794,112.880822 90.6412128,109.673787 92.4877223,106.454143 C93.568005,104.570956 94.651153,102.688914 95.7417513,100.812031 C96.5675801,99.3896107 97.3836663,97.962033 98.2587812,96.5711333 C98.4501946,96.2668203 98.8731382,95.9155135 99.1923517,95.9132211 C104.326703,95.8713853 109.4622,95.8834202 114.915765,95.8834202" id="Fill-61" fill="#FFFFFE"></path>
                <path d="M47.9392745,48.2598061 C55.070859,43.0033858 77.776279,42.9523805 85.7474466,48.2259935 C84.5227442,50.8754081 83.2653755,53.5391501 82.0607314,56.2263889 C81.2922121,57.9416599 80.580429,59.6832932 79.8852658,61.4295113 C79.5322397,62.315515 78.9918119,62.6524944 77.9992127,62.6467634 C70.5587304,62.6043545 63.117675,62.5997697 55.6777658,62.6507751 C54.626711,62.6582253 54.0627862,62.3103571 53.6650589,61.3876754 C51.7715555,57.0000661 49.8471051,52.6256379 47.9392745,48.2598061" id="Fill-62" fill="#FFFFFE"></path>
                <path d="M47.8623079,136.102428 C49.6165493,132.300521 51.6865657,128.687735 52.9393496,124.810179 C53.878078,121.906311 55.4919113,121.669623 57.9894559,121.720628 C64.5536772,121.855879 71.1236293,121.829516 77.6889968,121.718336 C79.1790417,121.693693 79.7509898,122.323523 80.2576051,123.503524 C81.6118267,126.65497 83.0445623,129.771456 84.4308772,132.910293 C84.8956566,133.963067 85.3122961,135.035899 85.7438361,136.08065 C78.8472202,141.261422 56.1756127,141.321597 47.8623079,136.102428" id="Fill-63" fill="#FFFFFE"></path>
                <path d="M54.9694786,11.3016473 C60.9371088,6.11399841 72.5674829,6.03376522 78.6789597,11.2901854 C71.2166998,14.3058072 69.1478297,20.745667 71.691795,26.785507 C73.4454633,30.9490366 79.3569302,35.300541 86.3973927,32.1508152 C86.6633084,33.9566351 85.4512142,36.8094981 83.3118534,39.3483055 C72.34283,35.9320908 61.321655,35.9275061 50.2741176,39.3712293 C48.5972439,37.2461959 47.3845766,34.9801813 46.9845568,31.8734376 C50.7154002,33.9606467 54.2324794,33.4866978 57.489947,31.6871819 C59.5685598,30.5387011 61.2162056,28.7351736 62.1268524,26.4009608 C64.5665145,20.1462105 61.644307,13.8364431 54.9694786,11.3016473" id="Fill-64" fill="#FFFFFE"></path>
                <path d="M113.656218,62.1620977 C111.652681,59.6697109 109.828522,57.2885044 107.869113,55.0230629 C107.167072,54.2121346 107.334416,53.8539507 108.063392,53.3043533 C109.8652,51.9449738 111.611418,50.5122383 113.410361,49.1494202 C114.902125,48.0192784 116.307352,46.909768 118.454736,46.9974514 C121.77639,47.1321286 124.51005,51.2578339 122.818849,54.3210225 C122.173545,55.4907078 121.130513,56.4982075 120.102955,57.3865035 C118.310316,58.9355772 116.395036,60.3425235 114.514713,61.787294 C114.257967,61.9850115 113.904941,62.0572214 113.656218,62.1620977" id="Fill-65" fill="#D8232A"></path>
                <path d="M15.7533859,47.0718964 C17.5924453,46.6581223 18.7741656,48.1177933 20.114633,49.0542293 C22.0373641,50.3975621 23.8208333,51.9403318 25.6702084,53.3885409 C26.245595,53.8389929 26.4931717,54.17368 25.8707914,54.9055213 C24.056375,57.038578 22.316461,59.2381136 20.6401604,61.4817775 C20.1323989,62.1614673 19.7272213,62.2766592 19.1180221,61.7986986 C16.6886757,59.8925872 14.1854001,58.0678552 11.8838537,56.0173241 C10.6729056,54.9387608 10.1542554,53.3260736 10.3766159,51.6337264 C10.7090106,49.0966383 13.0976673,46.7211627 15.7533859,47.0718964" id="Fill-66" fill="#D8232A"></path>
                <path d="M23.7750431,127.446126 C20.9622966,129.320717 18.1277726,131.316231 15.1832145,133.135806 C13.0954322,134.425268 11.0706903,133.726666 9.38808571,132.234901 C7.89460216,130.910481 7.50489809,129.149935 7.90721024,127.159579 C8.43732239,124.530796 10.7107872,123.643073 12.5487004,122.322664 C14.079435,121.222896 15.636532,120.151783 17.2457806,119.173511 C17.5621286,118.980951 18.4269278,119.096143 18.6034408,119.36034 C20.3450742,121.965626 21.9944393,124.63166 23.7750431,127.446126" id="Fill-67" fill="#D8232A"></path>
                <path d="M109.778032,127.414262 C111.35748,125.082915 112.868156,122.902291 114.324962,120.687282 C115.627032,118.706095 115.613278,118.670564 117.657505,120.078083 C119.91435,121.632314 122.231943,123.117202 124.367865,124.826742 C126.771422,126.750619 126.056774,130.508398 124.538647,132.020793 C122.473789,134.079348 120.141295,134.246118 117.675844,132.608788 C115.03961,130.858558 112.388477,129.129533 109.778032,127.414262" id="Fill-68" fill="#D8232A"></path>
                <path d="M81.6161249,18.5311163 C83.8420229,18.4892804 85.2919513,19.8945075 85.3607226,22.1049319 C85.4346517,24.4809806 83.5067628,25.7331914 81.7467904,25.8512488 C79.9667598,25.9710255 78.0010466,24.0723644 78.0308475,22.2608135 C78.0612215,20.4131578 79.1638547,18.5253854 81.6161249,18.5311163" id="Fill-69" fill="#D8232A"></path>
                <path d="M51.9702473,18.5288813 C54.382974,18.5294544 55.5096772,20.1536034 55.6242961,22.1938188 C55.7245876,23.9801535 53.7514242,25.9126272 51.9771244,25.8593295 C50.3701682,25.8111896 48.2416963,24.5652827 48.2915555,22.1743336 C48.3379761,19.9662016 49.7403377,18.5311736 51.9702473,18.5288813" id="Fill-70" fill="#D8232A"></path>
            </g>
        </g>
    </g>
</svg>